<svg width="261" height="412" viewBox="0 0 261 412" fill="none" xmlns="http://www.w3.org/2000/svg">
<g clip-path="url(#clip0_172_369)">
<path d="M101.152 377.623C98.7332 383.997 95.5225 390.073 91.6155 395.665C90.2388 397.637 88.7823 399.476 86.9058 400.98C85.0294 402.479 83.2806 404.882 84.163 407.12C85.1145 409.539 88.3358 409.937 90.9298 409.778C101.859 409.103 112.575 405.307 121.489 398.96C127.9 394.394 128.676 384.162 129.006 376.3C119.608 373.397 110.125 373.594 101.152 377.629V377.623Z" fill="#806235" stroke="#68461A" stroke-width="4.23657" stroke-linecap="round" stroke-linejoin="round"/>
<path d="M95.1609 356.228C89.7549 354.926 83.6312 357.945 81.3827 363.032C79.8305 364.079 78.6186 365.206 77.6192 366.79C75.5833 370.011 76.6837 374.609 79.5754 377.092C82.4671 379.574 86.6983 380.09 90.3715 379.08C94.2572 382.025 98.4353 385.039 103.267 385.661C106.287 386.049 109.375 385.437 112.187 384.273C114.074 386.644 118.055 387.84 121.064 388.202C126.119 388.813 130.877 385.958 135.172 383.221C136.501 385.214 141.046 384.874 143.321 384.119C146.43 383.088 149.147 380.781 150.46 377.778C151.772 374.774 151.586 371.106 149.779 368.369C147.972 365.637 144.533 364.005 141.301 364.558C133.455 365.892 125.593 365.658 117.646 366.046C113.431 366.253 109.114 366.259 105.106 364.94C101.098 363.622 96.511 360.225 95.1609 356.228Z" fill="#FFD146" stroke="#664620" stroke-width="3.76348" stroke-miterlimit="10"/>
<path d="M110.061 320.193C105.643 336.533 98.0259 351.997 87.7561 365.45C102.05 377.517 122.967 381.249 140.216 373.998C145.096 359.236 148.764 344.071 149.912 328.565C138.6 319.231 124.338 316.834 110.066 320.188L110.061 320.193Z" fill="#BD3734" stroke="#664620" stroke-width="3.76348" stroke-miterlimit="10"/>
<g style="mix-blend-mode:multiply">
<path d="M144.788 358.535C145.755 354.787 146.622 351.019 147.361 347.223C143.374 340.818 137.006 335.805 129.792 333.642C121.851 331.266 110.954 335.003 102.815 340.265C101.912 342.242 100.966 344.199 99.9663 346.133C103.746 347.776 106.696 351.518 108.982 355.149C111.937 359.848 114.967 365.132 120.187 367.013C125.471 368.916 131.329 366.668 136.15 363.787C139.026 362.07 141.827 360.092 144.782 358.535H144.788Z" fill="#E0E0E0"/>
</g>
<path d="M233.974 357.467C238.264 361.405 243.037 364.807 248.161 367.577C249.969 368.555 251.781 369.4 253.791 369.825C255.8 370.251 258.048 371.415 258.234 373.456C258.431 375.667 256.129 377.204 254.088 378.075C245.493 381.743 235.866 382.955 226.628 381.525C219.988 380.499 215.475 372.983 212.212 367.114C218.271 361.299 225.586 357.817 233.974 357.461V357.467Z" fill="#806235" stroke="#68461A" stroke-width="4.23657" stroke-linecap="round" stroke-linejoin="round"/>
<path d="M230.353 338.851C233.979 335.789 239.805 335.747 243.472 338.761C245.057 338.968 246.412 339.361 247.783 340.185C250.569 341.865 251.488 345.793 250.234 348.797C248.979 351.795 245.95 353.815 242.76 354.447C240.926 358.184 238.89 362.08 235.441 364.409C233.288 365.86 230.694 366.577 228.105 366.769C227.573 369.299 224.99 371.739 222.837 373.169C219.212 375.572 214.492 375.215 210.165 374.769C209.915 376.8 206.316 378.283 204.291 378.575C201.521 378.979 198.566 378.261 196.413 376.47C194.26 374.684 193 371.808 193.33 369.033C193.66 366.253 195.664 363.696 198.337 362.878C204.833 360.89 210.744 357.7 216.958 354.952C220.254 353.496 223.549 351.848 226.101 349.307C228.652 346.766 230.853 342.418 230.353 338.851Z" fill="#FFD146" stroke="#654B26" stroke-width="3.76348" stroke-miterlimit="10"/>
<path d="M205.179 317.062C214.805 327.837 226.542 336.719 239.534 343.05C233.251 357.732 218.718 368.592 202.781 369.666C193.405 360.273 184.799 350.104 177.984 338.713C183.039 327.257 193.001 319.964 205.179 317.062Z" fill="#BD3734" stroke="#654B26" stroke-width="3.76348" stroke-miterlimit="10"/>
<g style="mix-blend-mode:multiply">
<path d="M219.196 330.245C217.001 330.176 214.795 330.266 212.61 330.468C204.61 331.218 196.418 333.567 190.587 339.09C187.897 341.636 186.186 345.618 185.484 349.865C189.482 355.229 193.851 360.321 198.454 365.201C201.25 364.52 203.972 363.26 206.337 361.666C211.945 357.881 216.267 352.496 221.492 348.196C225.931 344.549 231.523 341.642 237.131 341.838C230.8 338.559 224.788 334.668 219.196 330.245Z" fill="#E0E0E0"/>
</g>
<path d="M120.522 280.363C115.812 299.85 105.298 317.891 90.6583 331.59C94.0125 328.023 99.7427 330.548 103.799 333.296C107.854 336.044 110.443 340.414 113.191 344.47C115.934 348.525 119.23 352.602 123.87 354.176C129.399 356.047 135.453 353.905 140.625 351.21C145.797 348.515 150.858 345.171 156.647 344.448C169.16 342.891 180.945 353.979 193.325 351.587C200.091 350.279 205.391 345.214 211.345 341.753C220.009 336.714 230.577 335.045 240.368 337.166C227.228 320.916 218.048 299.754 213.237 279.417C183.065 270.97 150.762 272.166 120.522 280.357V280.363Z" fill="#FF4A46" stroke="#664620" stroke-width="3.76348" stroke-miterlimit="10"/>
<g style="mix-blend-mode:multiply">
<path d="M219.824 300.674C217.118 293.652 214.907 286.492 213.232 279.427C196.839 274.84 179.823 273.102 162.845 273.782C148.573 274.351 134.327 276.626 120.517 280.368C118.268 289.671 114.685 298.638 109.97 306.968C110.635 307.095 111.299 307.207 111.969 307.292C112.219 308.233 112.495 309.169 112.804 310.093C111.624 310.264 110.46 310.551 109.317 311.05C107.919 311.656 106.696 312.613 105.904 313.846C105.362 314.691 105.096 315.515 105.027 316.297C104.91 317.69 105.463 318.944 106.398 319.949C106.414 319.965 106.43 319.986 106.446 320.007C106.542 320.103 106.638 320.198 106.739 320.294C106.786 320.342 106.84 320.385 106.887 320.432C106.978 320.512 107.073 320.592 107.169 320.666C107.244 320.725 107.318 320.778 107.392 320.831C107.477 320.895 107.562 320.959 107.653 321.017C107.812 321.123 107.977 321.224 108.147 321.32C108.216 321.357 108.285 321.395 108.355 321.432C108.477 321.496 108.599 321.559 108.721 321.618C108.796 321.65 108.865 321.682 108.939 321.713C109.072 321.772 109.205 321.825 109.338 321.873C109.402 321.9 109.465 321.921 109.535 321.947C109.737 322.016 109.939 322.08 110.141 322.133C111.395 322.463 112.703 322.548 114.021 322.516C114.154 322.516 114.281 322.511 114.414 322.505C115.414 322.463 116.418 322.351 117.418 322.224C117.769 322.176 118.114 322.128 118.465 322.08C118.89 322.022 119.315 321.953 119.741 321.889C123.068 329.575 129.064 336.193 136.724 340.409C141.54 343.061 146.978 344.73 152.597 345.395C153.904 344.969 155.244 344.645 156.626 344.47C159.868 344.066 163.063 344.518 166.237 345.357C166.667 345.347 167.103 345.342 167.534 345.32C169.267 345.235 170.994 345.054 172.711 344.783C173.349 344.682 173.987 344.571 174.619 344.443C180.467 343.268 186.101 341.004 191.023 337.756C198.54 332.797 204.313 325.599 207.39 317.604C207.816 317.626 208.246 317.652 208.671 317.668C209.022 317.684 209.368 317.695 209.719 317.711C210.42 317.732 211.127 317.748 211.829 317.732C212.18 317.727 212.531 317.711 212.881 317.69C213.259 317.668 213.636 317.631 214.008 317.589C214.673 317.509 215.332 317.392 215.98 317.222C216.315 317.131 216.65 317.03 216.98 316.908C217.192 316.834 217.4 316.743 217.607 316.653C217.676 316.621 217.745 316.584 217.82 316.552C217.952 316.488 218.085 316.424 218.218 316.35C218.303 316.302 218.388 316.254 218.468 316.206C218.58 316.143 218.691 316.079 218.798 316.004C218.888 315.946 218.978 315.882 219.069 315.824C219.164 315.76 219.255 315.691 219.345 315.622C219.441 315.553 219.531 315.478 219.622 315.404C219.701 315.34 219.776 315.276 219.85 315.207C219.946 315.122 220.042 315.037 220.132 314.947C220.19 314.888 220.244 314.83 220.302 314.771C220.403 314.67 220.499 314.564 220.589 314.458C220.621 314.42 220.653 314.378 220.685 314.335C221.301 313.575 221.737 312.719 221.886 311.805C221.886 311.805 221.886 311.8 221.886 311.794C221.918 311.614 221.934 311.433 221.939 311.247C221.939 311.231 221.939 311.215 221.939 311.199C221.939 311.018 221.939 310.838 221.918 310.657C221.918 310.636 221.918 310.62 221.913 310.598C221.891 310.418 221.859 310.232 221.812 310.046C221.812 310.03 221.801 310.014 221.801 309.998C221.652 309.413 221.386 308.823 220.961 308.233C220.132 307.079 218.877 306.245 217.463 305.777C216.305 305.394 215.135 305.214 213.95 305.166C214.226 304.209 214.476 303.252 214.694 302.285C216.432 301.897 218.139 301.355 219.802 300.695L219.824 300.674Z" fill="#E0E0E0"/>
</g>
<path d="M195.196 356.1C194.877 356.175 194.558 356.244 194.234 356.308C186.532 357.796 179.552 355.165 172.807 352.629C167.316 350.561 162.133 348.611 157.237 349.222C153.452 349.695 149.769 351.71 145.867 353.846C144.857 354.399 143.847 354.952 142.837 355.478C134.858 359.635 128.15 360.698 122.329 358.732C116.28 356.685 112.304 351.736 109.216 347.17C108.87 346.654 108.524 346.139 108.179 345.618C105.968 342.296 103.879 339.159 101.109 337.278C97.6381 334.928 94.7995 334.205 94.1616 334.886C92.3437 336.815 89.3084 336.911 87.3789 335.093C85.4493 333.275 85.3536 330.24 87.1716 328.31C89.2553 326.093 95.3098 321.756 106.499 329.331C110.831 332.265 113.67 336.533 116.179 340.302C116.514 340.802 116.843 341.302 117.178 341.796C119.374 345.038 122.063 348.51 125.418 349.642C128.628 350.726 132.875 349.854 138.414 346.968C139.371 346.468 140.317 345.947 141.274 345.426C145.792 342.955 150.47 340.393 156.062 339.696C163.313 338.793 169.867 341.259 176.203 343.646C181.955 345.809 187.387 347.856 192.427 346.883C196.174 346.165 199.677 343.763 203.382 341.222C205.158 340.005 206.997 338.745 208.948 337.612C218.627 331.983 230.455 330.112 241.4 332.483C243.988 333.041 245.636 335.598 245.078 338.187C244.52 340.775 241.963 342.423 239.374 341.865C230.742 339.999 221.413 341.472 213.774 345.91C212.132 346.862 210.521 347.967 208.815 349.142C204.711 351.954 200.469 354.862 195.217 356.106L195.196 356.1Z" fill="#FFD146" stroke="#664620" stroke-width="3.76348" stroke-miterlimit="10"/>
<path d="M141.641 236.918C119.767 239.502 100.593 253.089 91.3974 273.097C86.0127 284.807 78.6877 295.63 69.7521 304.921C73.2764 300.754 79.7933 303.236 84.4658 306.054C89.1382 308.871 92.2745 313.581 95.5649 317.934C98.8552 322.288 102.757 326.63 108.009 328.103C114.265 329.857 120.873 327.125 126.47 323.824C132.067 320.523 137.5 316.51 143.895 315.367C157.721 312.9 171.478 324.547 185.112 321.161C192.559 319.316 198.157 313.368 204.578 309.169C213.923 303.061 225.575 300.584 236.594 302.37C228.169 293.004 220.95 281.974 215.066 270.279C203.876 248.049 180.45 234.595 155.589 235.765C150.933 235.983 146.281 236.371 141.646 236.918H141.641Z" fill="#FF4A46" stroke="#664620" stroke-width="3.76348" stroke-miterlimit="10"/>
<path d="M187.456 326.067C187.105 326.168 186.755 326.264 186.399 326.354C177.915 328.459 170.005 325.945 162.356 323.515C156.131 321.538 150.247 319.667 144.835 320.634C140.652 321.379 136.676 323.84 132.461 326.439C131.371 327.114 130.281 327.784 129.186 328.432C120.554 333.525 113.154 335.098 106.568 333.248C99.7163 331.324 95.0066 326.056 91.3016 321.155C90.887 320.602 90.4724 320.05 90.0577 319.492C87.4052 315.925 84.9016 312.555 81.7069 310.63C77.7095 308.217 74.5095 307.579 73.8397 308.371C71.9314 310.625 68.5613 310.907 66.3074 308.998C64.0536 307.09 63.7719 303.72 65.6802 301.466C67.8702 298.877 74.35 293.7 87.2351 301.472C92.2265 304.485 95.6339 309.062 98.6425 313.107C99.0412 313.644 99.4399 314.176 99.8385 314.707C102.47 318.189 105.664 321.889 109.46 322.952C113.09 323.973 117.768 322.75 123.759 319.22C124.79 318.609 125.816 317.977 126.847 317.344C131.727 314.33 136.777 311.21 142.964 310.109C150.975 308.68 158.406 311.045 165.598 313.325C172.121 315.398 178.282 317.355 183.831 315.978C187.961 314.957 191.709 312.082 195.685 309.041C197.588 307.584 199.56 306.075 201.66 304.698C212.1 297.873 225.144 295.103 237.455 297.091C240.368 297.565 242.351 300.307 241.878 303.22C241.405 306.133 238.662 308.116 235.749 307.643C226.037 306.07 215.746 308.26 207.512 313.639C205.742 314.798 204.015 316.121 202.181 317.519C197.779 320.89 193.234 324.366 187.462 326.056L187.456 326.067Z" fill="#FFD146" stroke="#664620" stroke-width="3.76348" stroke-miterlimit="10"/>
<path d="M121.558 203.052C99.6845 205.636 80.511 219.223 71.3149 239.231C65.9302 250.941 58.6052 261.764 49.6696 271.055C53.1939 266.888 59.7109 269.37 64.3833 272.188C69.0558 275.005 72.192 279.715 75.4824 284.068C78.7728 288.422 82.6745 292.765 87.9263 294.237C94.1828 295.991 100.79 293.259 106.388 289.958C111.985 286.657 117.418 282.644 123.812 281.501C137.638 279.034 151.395 290.681 165.03 287.295C172.477 285.45 178.074 279.502 184.496 275.303C193.841 269.195 205.492 266.718 216.512 268.504C208.086 259.138 200.868 248.108 194.983 236.413C183.794 214.183 160.368 200.729 135.507 201.899C130.85 202.117 126.199 202.505 121.564 203.052H121.558Z" fill="#FF4A46" stroke="#664620" stroke-width="3.76348" stroke-miterlimit="10"/>
<path d="M167.374 292.201C167.023 292.302 166.672 292.398 166.316 292.488C157.832 294.593 149.923 292.079 142.273 289.65C136.049 287.672 130.164 285.801 124.753 286.768C120.57 287.513 116.593 289.974 112.378 292.573C111.288 293.248 110.199 293.918 109.104 294.567C100.471 299.659 93.0718 301.232 86.4857 299.382C79.6338 297.458 74.9241 292.19 71.2191 287.289C70.8045 286.737 70.3899 286.184 69.9753 285.626C67.3228 282.059 64.8191 278.689 61.6244 276.764C57.627 274.351 54.427 273.713 53.7572 274.505C51.8489 276.759 48.4788 277.041 46.225 275.133C43.9711 273.224 43.6894 269.854 45.5977 267.6C47.7878 265.012 54.2675 259.834 67.1527 267.606C72.1441 270.62 75.5514 275.196 78.56 279.241C78.9587 279.778 79.3574 280.31 79.7561 280.842C82.3873 284.323 85.582 288.023 89.3774 289.086C93.008 290.107 97.6857 288.884 103.676 285.354C104.708 284.743 105.734 284.111 106.765 283.478C111.645 280.464 116.694 277.344 122.882 276.243C130.893 274.814 138.324 277.179 145.516 279.459C152.038 281.533 158.199 283.489 163.749 282.112C167.879 281.091 171.626 278.216 175.602 275.175C177.505 273.719 179.478 272.209 181.577 270.832C192.017 264.007 205.062 261.237 217.373 263.225C220.286 263.699 222.269 266.441 221.795 269.354C221.322 272.267 218.579 274.25 215.666 273.777C205.955 272.204 195.664 274.394 187.43 279.773C185.66 280.932 183.932 282.255 182.098 283.653C177.697 287.024 173.152 290.5 167.379 292.19L167.374 292.201Z" fill="#FFD146" stroke="#664620" stroke-width="3.76348" stroke-miterlimit="10"/>
<path d="M51.6951 290.59C50.8287 297.224 49.1383 303.747 46.6718 309.966C45.8054 312.161 44.8326 314.245 43.3761 316.1C41.925 317.955 40.798 320.645 42.1482 322.58C43.6047 324.669 46.7675 324.324 49.2074 323.585C59.4825 320.47 68.854 314.426 75.9238 306.351C81.0109 300.547 79.4322 290.601 77.9757 283.026C68.349 282.383 59.3443 284.711 51.6951 290.596V290.59Z" fill="#806235" stroke="#68461A" stroke-width="4.23657" stroke-linecap="round" stroke-linejoin="round"/>
<path d="M41.1381 271.529C35.6842 271.507 30.5281 275.776 29.5234 281.134C28.2796 282.484 27.3759 283.834 26.7805 285.567C25.5686 289.102 27.6576 293.243 30.9799 294.955C34.3022 296.666 38.459 296.209 41.7334 294.412C46.1082 296.347 50.7754 298.277 55.5329 297.777C58.499 297.464 61.311 296.182 63.7296 294.439C66.0632 296.273 70.1403 296.512 73.0904 296.182C78.0553 295.624 81.9463 291.824 85.4281 288.236C87.145 289.836 91.4082 288.485 93.4068 287.252C96.1444 285.562 98.2122 282.75 98.7863 279.587C99.3604 276.424 98.3504 272.964 96.0062 270.763C93.662 268.562 90.0155 267.786 87.0546 269.041C79.8732 272.087 72.3144 273.644 64.814 275.813C60.8379 276.961 56.7236 277.944 52.5986 277.594C48.4737 277.243 43.3335 275.037 41.1328 271.529H41.1381Z" fill="#FFD146" stroke="#664620" stroke-width="3.76348" stroke-miterlimit="10"/>
<path d="M47.2134 233.771C46.6924 250.362 42.9183 266.845 36.1621 282.006C52.5343 290.287 73.3398 289.118 88.1598 278.301C89.4781 263.109 89.5525 247.805 87.1392 232.751C74.2328 226.404 60.0825 227.334 47.2187 233.771H47.2134Z" fill="#BD3734" stroke="#664620" stroke-width="3.76348" stroke-miterlimit="10"/>
<g style="mix-blend-mode:multiply">
<path d="M89.0215 262.508C89.0959 258.712 89.0694 254.922 88.9205 251.132C83.6634 245.918 76.4553 242.574 69.0879 242.144C60.9709 241.67 51.4186 247.704 44.8432 254.566C44.4286 256.661 43.9661 258.739 43.4505 260.807C47.4266 261.519 51.0944 264.427 54.0924 267.372C57.9782 271.188 62.0606 275.547 67.4719 276.164C72.947 276.786 78.0288 273.314 81.9783 269.477C84.3331 267.186 86.5604 264.666 89.0268 262.513L89.0215 262.508Z" fill="#E0E0E0"/>
</g>
<path d="M151.539 286.806C153.101 293.099 155.44 299.202 158.497 304.921C159.576 306.941 160.735 308.839 162.34 310.471C163.945 312.103 165.317 314.564 164.232 316.578C163.058 318.753 159.974 318.763 157.545 318.317C147.307 316.44 137.622 311.64 129.92 304.634C124.386 299.6 124.817 289.846 125.396 282.388C134.598 280.714 143.533 281.979 151.544 286.806H151.539Z" fill="#806235" stroke="#68461A" stroke-width="4.23657" stroke-linecap="round" stroke-linejoin="round"/>
<path d="M159.624 267.287C164.875 266.67 170.313 270.221 171.86 275.271C173.205 276.435 174.22 277.636 174.986 279.241C176.538 282.516 174.98 286.731 171.967 288.746C168.953 290.76 164.902 290.771 161.548 289.394C157.545 291.733 153.261 294.104 148.626 294.141C145.734 294.162 142.885 293.238 140.365 291.818C138.318 293.844 134.417 294.519 131.536 294.519C126.693 294.519 122.526 291.287 118.783 288.214C117.3 289.947 113.048 289.107 110.991 288.14C108.173 286.811 105.872 284.329 104.968 281.346C104.07 278.364 104.665 274.92 106.68 272.544C108.694 270.168 112.128 269.02 115.116 269.907C122.372 272.055 129.819 272.73 137.277 274C141.231 274.675 145.303 275.17 149.237 274.383C153.17 273.591 157.885 270.907 159.618 267.292L159.624 267.287Z" fill="#FFD146" stroke="#664620" stroke-width="3.76348" stroke-miterlimit="10"/>
<path d="M149.647 231.576C151.959 247.502 157.402 262.97 165.567 276.833C150.699 286.604 130.531 287.752 115.074 278.949C112.145 264.459 110.401 249.724 111.082 234.957C122.818 227.43 136.554 226.781 149.652 231.576H149.647Z" fill="#BD3734" stroke="#664620" stroke-width="3.76348" stroke-miterlimit="10"/>
<g style="mix-blend-mode:multiply">
<path d="M154.552 252.435C152.554 251.021 150.454 249.745 148.296 248.591C140.407 244.371 131.355 241.511 122.542 243.058C118.48 243.77 114.441 246.417 111.177 249.931C111.591 257.373 112.516 264.788 113.792 272.15C116.806 273.24 120.112 273.745 123.286 273.713C130.823 273.644 138.148 271.305 145.643 270.524C152.006 269.865 158.991 270.609 164.078 274.234C160.214 267.297 157.024 259.983 154.552 252.435Z" fill="#E0E0E0"/>
</g>
<path d="M53.3 173.529C49.2016 195.477 38.5597 216.161 23.0806 232.256C26.6048 228.089 33.1218 230.571 37.7943 233.389C42.4667 236.206 45.6029 240.916 48.8933 245.269C52.1837 249.623 56.0854 253.965 61.3373 255.438C67.5938 257.192 74.2011 254.46 79.7985 251.159C85.3959 247.858 90.8284 243.844 97.2232 242.702C111.049 240.235 124.806 251.882 138.441 248.496C145.888 246.651 151.485 240.703 157.907 236.504C167.251 230.396 178.903 227.919 189.923 229.705C174.353 212.397 162.909 189.402 156.37 167.06C122.318 159.432 86.459 162.648 53.3 173.524V173.529Z" fill="#FF4A46" stroke="#664620" stroke-width="3.76348" stroke-miterlimit="10"/>
<g style="mix-blend-mode:multiply">
<path d="M164.939 190.311C161.516 182.656 158.64 174.821 156.365 167.06C137.866 162.914 118.836 161.978 99.9924 163.727C84.1518 165.194 68.4388 168.559 53.2945 173.529C51.3384 184.006 47.8726 194.191 43.1204 203.733C43.8646 203.834 44.6141 203.924 45.3636 203.977C45.6984 205.008 46.0599 206.034 46.4533 207.044C45.1509 207.299 43.8699 207.693 42.6313 208.309C41.1164 209.069 39.8034 210.202 38.9954 211.616C38.4373 212.588 38.1928 213.519 38.1662 214.39C38.1183 215.943 38.8041 217.309 39.9097 218.372C39.931 218.393 39.9469 218.414 39.9682 218.43C40.0798 218.531 40.1914 218.632 40.3084 218.728C40.3669 218.776 40.4253 218.824 40.4838 218.872C40.5901 218.957 40.7017 219.036 40.8134 219.116C40.8984 219.175 40.9835 219.233 41.0685 219.286C41.1695 219.35 41.2652 219.419 41.3662 219.478C41.5522 219.589 41.7383 219.69 41.9297 219.786C42.0094 219.823 42.0891 219.86 42.1689 219.897C42.3071 219.961 42.4453 220.025 42.5888 220.078C42.6739 220.11 42.7536 220.142 42.8386 220.174C42.9875 220.232 43.1416 220.28 43.2958 220.328C43.3702 220.349 43.4446 220.376 43.519 220.397C43.7476 220.461 43.9762 220.519 44.2048 220.567C45.624 220.86 47.0805 220.881 48.5423 220.764C48.6858 220.753 48.8347 220.743 48.9782 220.727C50.0839 220.62 51.2001 220.44 52.3005 220.238C52.6885 220.169 53.0712 220.094 53.454 220.02C53.9218 219.929 54.3948 219.828 54.8626 219.733C59.0141 228.084 66.068 235.1 74.8388 239.337C80.3511 242.005 86.496 243.547 92.7844 243.956C94.2143 243.403 95.6868 242.967 97.2124 242.696C100.795 242.058 104.378 242.372 107.95 243.122C108.434 243.084 108.912 243.052 109.396 243.005C111.315 242.808 113.228 242.505 115.126 242.101C115.828 241.952 116.529 241.787 117.226 241.612C123.658 239.964 129.792 237.115 135.081 233.213C143.15 227.26 149.152 218.919 152.107 209.84C152.585 209.84 153.059 209.84 153.537 209.84C153.925 209.84 154.313 209.83 154.706 209.824C155.488 209.808 156.274 209.782 157.056 209.729C157.444 209.702 157.837 209.665 158.225 209.622C158.645 209.574 159.06 209.516 159.475 209.442C160.208 209.314 160.936 209.144 161.643 208.915C162.01 208.798 162.377 208.66 162.738 208.511C162.972 208.416 163.195 208.304 163.424 208.187C163.504 208.145 163.578 208.102 163.653 208.06C163.796 207.98 163.94 207.9 164.083 207.815C164.174 207.757 164.264 207.698 164.354 207.64C164.471 207.56 164.593 207.48 164.71 207.4C164.806 207.331 164.902 207.257 164.997 207.182C165.098 207.103 165.194 207.023 165.295 206.943C165.396 206.858 165.492 206.773 165.588 206.683C165.667 206.608 165.752 206.529 165.827 206.454C165.928 206.353 166.029 206.252 166.124 206.151C166.188 206.082 166.247 206.013 166.305 205.944C166.406 205.822 166.512 205.705 166.608 205.577C166.645 205.529 166.677 205.481 166.709 205.434C167.352 204.551 167.783 203.573 167.9 202.547C167.9 202.547 167.9 202.542 167.9 202.537C167.921 202.335 167.932 202.127 167.926 201.925C167.926 201.909 167.926 201.888 167.926 201.872C167.921 201.67 167.9 201.468 167.868 201.266C167.868 201.245 167.863 201.224 167.857 201.202C167.825 201 167.778 200.798 167.714 200.591C167.714 200.575 167.703 200.554 167.698 200.538C167.496 199.9 167.166 199.257 166.661 198.624C165.673 197.391 164.227 196.535 162.627 196.094C161.319 195.733 160.001 195.605 158.682 195.616C158.932 194.537 159.156 193.457 159.342 192.373C161.25 191.836 163.121 191.135 164.934 190.305L164.939 190.311Z" fill="#E0E0E0"/>
</g>
<path d="M140.785 253.397C140.435 253.498 140.084 253.593 139.728 253.684C131.244 255.789 123.334 253.274 115.685 250.845C109.46 248.868 103.576 246.997 98.1645 247.964C93.9811 248.708 90.005 251.169 85.7897 253.769C84.7 254.444 83.6103 255.114 82.5152 255.762C73.8826 260.855 66.4832 262.428 59.8972 260.578C53.0453 258.654 48.3356 253.386 44.6306 248.485C44.216 247.932 43.8014 247.379 43.3868 246.821C40.7343 243.254 38.2306 239.884 35.0359 237.96C31.0385 235.547 27.8385 234.909 27.1687 235.701C25.2604 237.955 21.8903 238.236 19.6365 236.328C17.3826 234.42 17.1009 231.05 19.0092 228.796C21.1993 226.207 27.679 221.03 40.5642 228.801C45.5556 231.815 48.9629 236.392 51.9715 240.437C52.3702 240.974 52.7689 241.506 53.1676 242.037C55.7988 245.519 58.9935 249.219 62.7889 250.282C66.4195 251.302 71.0972 250.08 77.088 246.55C78.1192 245.939 79.1451 245.306 80.1764 244.674C85.0561 241.66 90.106 238.539 96.2934 237.439C104.304 236.009 111.735 238.375 118.927 240.655C125.45 242.728 131.611 244.684 137.16 243.308C141.29 242.287 145.038 239.411 149.014 236.371C150.917 234.914 152.889 233.405 154.989 232.028C165.429 225.203 178.473 222.433 190.784 224.421C193.697 224.894 195.68 227.637 195.207 230.55C194.734 233.463 191.991 235.446 189.078 234.973C179.366 233.399 169.075 235.589 160.841 240.969C159.071 242.128 157.344 243.451 155.51 244.849C151.108 248.219 146.563 251.696 140.791 253.386L140.785 253.397Z" fill="#FFD146" stroke="#664620" stroke-width="3.76348" stroke-miterlimit="10"/>
<path d="M103.884 187.249C101.385 186.739 98.6903 186.808 96.1281 187.036C80.2663 188.424 66.4934 192.288 53.0661 200.841C54.9425 213.221 62.0017 224.735 72.1918 232.017C80.6703 238.077 91.2218 241.128 101.63 240.698L103.884 187.249Z" fill="#B53416"/>
<path d="M103.884 187.249C106.414 186.951 109.099 187.249 111.629 187.69C127.315 190.412 140.716 195.419 153.378 205.072C150.465 217.25 142.46 228.132 131.695 234.526C122.733 239.853 111.964 242.005 101.63 240.698L103.884 187.249Z" fill="#B53416"/>
<path d="M131.897 215.321C135.14 213.078 138.217 210.542 141.104 207.778C137.415 207.406 133.72 205.917 130.696 203.775C129.277 206.183 127.522 208.373 125.513 210.313L131.897 215.321Z" fill="white"/>
<path d="M119.124 222.114C122.818 220.711 126.369 218.893 129.75 216.745L123.658 211.967C121.415 213.822 118.922 215.379 116.27 216.596C117.157 218.462 118.114 220.301 119.124 222.114Z" fill="white"/>
<path d="M81.1327 210.776L73.6961 215.055C76.1732 217.192 78.9267 219.026 81.8662 220.53L86.5652 214.853C84.625 213.678 82.7965 212.317 81.1327 210.776Z" fill="white"/>
<path d="M105.09 219.472C104.128 219.541 103.161 219.578 102.193 219.552C100.779 219.515 99.3706 219.371 97.9833 219.137L95.6709 224.91C97.7972 225.218 99.9394 225.378 102.082 225.372C103.065 225.372 104.043 225.33 105.016 225.266L105.09 219.477V219.472Z" fill="white"/>
<path d="M114.01 217.532C111.916 218.313 109.747 218.877 107.541 219.206L107.461 225.038C110.656 224.655 113.766 223.932 116.79 222.943C115.812 221.168 114.882 219.361 114.01 217.532Z" fill="white"/>
<path d="M95.554 218.622C93.1992 218.032 90.9135 217.16 88.7394 216.06L84.1467 221.609C87.049 222.885 90.0949 223.847 93.2098 224.485L95.5594 218.627L95.554 218.622Z" fill="white"/>
<path d="M79.347 208.979C77.4759 206.954 75.8652 204.695 74.5948 202.244C72.224 202.845 67.5782 203.77 65.2074 204.371C66.919 207.714 69.1729 210.707 71.8147 213.322L79.347 208.984V208.979Z" fill="white"/>
<path d="M76.7261 198.88C82.2224 210.436 92.3487 217.771 102.757 217.734C113.165 217.697 123.53 210.287 129.399 198.688C120.915 194.494 112.522 190.38 103.442 189.402C94.3634 188.424 84.2318 191.746 76.7261 198.88Z" fill="#664620"/>
<path d="M56.8671 198.561C60.2478 206.465 65.7708 213.46 72.7662 218.462C81.2446 224.522 91.7962 227.573 102.204 227.143C112.538 228.45 123.307 226.298 132.27 220.971C139.664 216.575 145.755 210.069 149.79 202.478C150.997 203.307 152.193 204.158 153.383 205.067C150.47 217.245 142.465 228.126 131.701 234.521C122.739 239.847 111.969 242 101.635 240.692C91.2327 241.123 80.6812 238.072 72.1974 232.012C62.0073 224.729 54.9481 213.216 53.0717 200.836C54.3315 200.033 55.602 199.283 56.8724 198.561H56.8671Z" fill="#FFE3DB"/>
<path d="M53.9381 206.794C53.9062 206.693 53.8796 206.592 53.8477 206.491C53.3268 204.657 52.9228 202.792 52.6357 200.905C66.0631 192.352 79.8412 188.487 95.6978 187.1C98.2599 186.877 100.955 186.807 103.453 187.312C105.984 187.015 108.668 187.312 111.198 187.754C126.103 190.337 138.941 194.999 151.044 203.738C151.682 204.195 152.315 204.657 152.942 205.136C152.373 207.512 151.608 209.84 150.672 212.094C147.605 219.451 142.662 226.026 136.437 231.007C134.794 232.32 133.067 233.521 131.265 234.595C128.373 236.312 125.295 237.694 122.106 238.741C115.403 240.942 108.205 241.649 101.205 240.767C97.9516 240.899 94.6878 240.697 91.4772 240.166C90.1908 239.953 88.915 239.687 87.6499 239.374C81.9622 237.955 76.5402 235.499 71.7667 232.086C66.6744 228.445 62.3581 223.746 59.0889 218.409C58.6796 217.739 58.2863 217.064 57.9089 216.378C56.7447 214.252 55.7401 212.035 54.9108 209.755C54.5547 208.782 54.2304 207.794 53.9434 206.8L53.9381 206.794Z" stroke="#664620" stroke-width="4.23657" stroke-miterlimit="10"/>
<path d="M115.063 103.219L114.483 78.6342L99.2059 78.0814L96.8511 102.565" fill="#E4B94E"/>
<path d="M115.063 103.219L114.483 78.6342L99.2059 78.0814L96.8511 102.565" stroke="#68461A" stroke-width="5.86847" stroke-linecap="round" stroke-linejoin="round"/>
<path d="M105.421 89.4224L107.97 89.5146C114.912 89.7655 120.742 84.3417 120.993 77.4003L121.086 74.8504C121.336 67.909 115.913 62.0784 108.971 61.8275L106.421 61.7354C99.4799 61.4845 93.6493 66.9082 93.3984 73.8497L93.3063 76.3995C93.0554 83.341 98.4792 89.1715 105.421 89.4224Z" fill="#806235" stroke="#68461A" stroke-width="6.64987" stroke-miterlimit="10"/>
<path d="M99.6049 98.9562C86.3477 99.8705 72.6174 103.958 63.113 113.452C57.7442 118.815 52.083 127.108 49.9833 134.555C45.4916 150.481 43.3813 160.58 43.9607 174.922C38.0284 173.157 32.043 179.674 32.851 186.032C33.659 192.389 39.671 197.227 45.784 197.88C51.897 198.534 57.8664 195.743 62.6027 191.81C63.1714 197.274 68.6413 201.24 73.8984 201.484C79.1556 201.729 84.0832 199.103 88.3198 195.967C90.8181 200.299 94.8208 203.026 99.674 203.207L102.109 203.297C106.425 203.536 113.585 201.128 116.392 196.987C120.389 200.421 125.115 203.393 130.377 203.531C135.64 203.669 141.381 200.108 142.343 194.702C146.781 198.97 152.533 202.181 158.678 201.973C164.823 201.761 171.164 197.37 172.435 191.092C173.7 184.809 168.203 177.878 162.159 179.212C163.775 164.945 162.399 154.723 159.066 138.515C157.508 130.935 152.464 122.255 147.494 116.519C138.701 106.361 125.301 101.295 112.144 99.4239C109.04 98.9827 102.741 98.7542 99.6155 98.9721L99.6049 98.9562Z" fill="#E4B94E"/>
<path d="M99.6048 96.8404C85.7735 97.8132 71.4638 102.034 61.4704 112.107C56.293 117.322 51.9767 123.626 49.1859 130.43C47.7454 133.938 46.8896 137.696 45.9381 141.359C45.0451 144.809 44.2211 148.275 43.5567 151.778C42.1055 159.422 41.5367 167.156 41.845 174.927L44.5241 172.886C40.5905 171.775 36.4443 173.449 33.8663 176.511C31.15 179.738 30.023 183.959 31.1021 188.078C32.1812 192.198 34.9241 195.345 38.3473 197.476C42.0098 199.757 46.257 200.453 50.4989 199.868C55.5913 199.167 60.1946 196.546 64.107 193.314L60.4923 191.815C61.0079 196.307 63.905 200.076 67.9555 202.042C72.3781 204.19 77.3376 203.951 81.84 202.127C84.5509 201.027 87.0387 199.533 89.3935 197.795L86.4965 197.035C89.3244 201.867 94.0659 205.083 99.7165 205.322C101.162 205.386 102.635 205.498 104.081 205.354C106.675 205.099 109.141 204.397 111.517 203.339C114.154 202.17 116.567 200.437 118.226 198.05L114.898 198.481C118.709 201.734 123.137 204.727 128.208 205.439C132.774 206.082 137.394 204.801 140.796 201.612C142.592 199.932 143.927 197.684 144.384 195.254L140.844 196.19C144.113 199.315 147.988 201.92 152.347 203.228C156.567 204.493 160.99 204.339 165.04 202.595C168.634 201.054 171.866 198.194 173.476 194.59C175.215 190.693 175.092 186.367 172.892 182.667C170.547 178.723 166.215 176.203 161.591 177.154L164.27 179.196C165.136 171.467 165.136 163.727 164.206 156.004C163.696 151.751 162.978 147.52 162.175 143.315C161.367 139.105 160.554 134.985 158.89 131.015C155.717 123.429 150.949 116.104 144.676 110.72C138.553 105.462 131.169 101.901 123.451 99.6577C116.37 97.6005 109.072 96.665 101.705 96.7607C101.003 96.7713 100.307 96.7926 99.6048 96.8351C98.4992 96.9095 97.4361 97.7547 97.4892 98.9507C97.5371 100.035 98.4248 101.146 99.6048 101.066C102.853 100.854 106.159 100.992 109.402 101.242C110.146 101.3 110.89 101.369 111.629 101.454C112.123 101.513 111.411 101.417 111.677 101.46C111.895 101.492 112.113 101.523 112.331 101.555C112.841 101.635 113.351 101.715 113.856 101.8C115.717 102.119 117.572 102.502 119.406 102.953C121.24 103.405 123.143 103.953 124.976 104.564C125.891 104.872 126.8 105.197 127.703 105.547C128.708 105.935 129.165 106.127 130.069 106.531C133.529 108.078 136.841 109.97 139.871 112.245C140.142 112.447 140.254 112.532 140.658 112.862C141.062 113.191 141.45 113.516 141.838 113.85C142.561 114.478 143.262 115.126 143.937 115.801C145.261 117.12 146.489 118.528 147.632 120.006C147.488 119.82 147.807 120.235 147.85 120.293C148.009 120.506 148.169 120.718 148.328 120.936C148.626 121.34 148.918 121.75 149.2 122.164C149.785 123.009 150.348 123.87 150.89 124.742C151.975 126.486 152.974 128.282 153.872 130.132C154.771 131.982 155.408 133.518 156.062 135.522C156.716 137.526 157.115 139.557 157.524 141.603C158.348 145.723 159.119 149.859 159.704 154.015C159.735 154.239 159.767 154.462 159.794 154.685C159.757 154.393 159.826 154.93 159.836 155.01C159.9 155.52 159.964 156.035 160.022 156.546C160.129 157.444 160.219 158.348 160.304 159.251C160.474 161.096 160.591 162.946 160.65 164.801C160.772 168.58 160.65 172.365 160.331 176.129C160.24 177.149 160.139 178.175 160.022 179.196C159.858 180.658 161.5 181.487 162.702 181.237C162.861 181.205 163.249 181.152 162.866 181.189C163.047 181.173 163.228 181.157 163.409 181.147C163.589 181.136 163.765 181.141 163.945 181.147C164.052 181.147 164.605 181.221 164.371 181.178C164.116 181.131 164.615 181.237 164.695 181.253C164.897 181.301 165.094 181.354 165.29 181.418C165.46 181.471 165.62 181.535 165.79 181.598C165.407 181.455 165.875 181.646 166.008 181.715C166.327 181.88 166.635 182.061 166.927 182.263C166.997 182.311 167.385 182.603 167.225 182.47C167.082 182.353 167.486 182.699 167.565 182.773C167.836 183.023 168.097 183.283 168.341 183.56C168.464 183.698 168.586 183.842 168.698 183.985C168.464 183.687 168.799 184.134 168.862 184.235C169.091 184.575 169.304 184.926 169.495 185.287C169.585 185.458 169.665 185.628 169.75 185.798C169.761 185.819 169.888 186.106 169.798 185.893C169.708 185.681 169.856 186.042 169.867 186.079C170 186.436 170.117 186.797 170.213 187.169C170.26 187.355 170.303 187.541 170.34 187.727C170.367 187.86 170.452 188.418 170.404 188.014C170.452 188.392 170.473 188.775 170.478 189.157C170.478 189.349 170.478 189.54 170.462 189.731C170.462 189.827 170.452 189.923 170.441 190.018C170.441 190.061 170.388 190.46 170.425 190.215C170.457 190.008 170.367 190.518 170.345 190.603C170.298 190.832 170.244 191.055 170.181 191.278C170.069 191.693 169.931 192.097 169.771 192.495C169.681 192.724 169.782 192.48 169.798 192.442C169.755 192.533 169.718 192.623 169.676 192.708C169.591 192.883 169.506 193.059 169.41 193.234C169.213 193.606 168.995 193.973 168.756 194.324C168.65 194.489 168.533 194.643 168.421 194.802C168.198 195.116 168.522 194.696 168.272 194.988C167.996 195.307 167.714 195.626 167.417 195.929C167.119 196.232 166.805 196.519 166.476 196.796C166.396 196.865 166.024 197.163 166.29 196.955C166.109 197.093 165.918 197.232 165.731 197.359C165.056 197.827 164.339 198.242 163.6 198.598C163.424 198.683 163.244 198.768 163.063 198.842C163.377 198.704 162.941 198.885 162.84 198.927C162.441 199.076 162.037 199.214 161.628 199.331C161.218 199.448 160.809 199.549 160.395 199.634C160.203 199.672 160.012 199.703 159.82 199.735C159.794 199.735 159.475 199.783 159.719 199.751C159.964 199.719 159.56 199.767 159.523 199.767C158.635 199.852 157.737 199.852 156.849 199.789C155.961 199.725 155.456 199.64 154.425 199.39C152.267 198.858 150.731 198.178 148.812 197.035C146.893 195.892 145.463 194.749 143.815 193.181C142.741 192.155 140.583 192.485 140.275 194.117C140.19 194.558 140.083 194.988 139.945 195.414C139.887 195.594 139.818 195.77 139.749 195.945C139.903 195.568 139.621 196.185 139.563 196.291C139.355 196.679 139.116 197.04 138.872 197.407C138.861 197.428 138.675 197.678 138.813 197.492C138.967 197.29 138.723 197.598 138.685 197.646C138.542 197.816 138.398 197.976 138.244 198.135C137.941 198.454 137.612 198.747 137.277 199.039C137.224 199.087 136.963 199.289 137.261 199.066C137.186 199.124 137.107 199.177 137.032 199.236C136.825 199.385 136.618 199.528 136.4 199.666C136.049 199.89 135.687 200.092 135.321 200.283C135.119 200.384 134.917 200.48 134.715 200.57C134.491 200.671 134.747 200.554 134.778 200.543C134.63 200.602 134.481 200.66 134.332 200.713C133.944 200.852 133.545 200.974 133.147 201.08C132.934 201.133 132.716 201.187 132.498 201.229C132.376 201.256 132.248 201.277 132.126 201.298C132.083 201.303 131.69 201.362 131.94 201.33C132.163 201.303 131.573 201.362 131.472 201.373C131.254 201.389 131.036 201.399 130.818 201.399C130.319 201.404 129.814 201.383 129.314 201.335C129.271 201.335 128.809 201.277 129.027 201.303C129.218 201.33 128.846 201.272 128.857 201.277C128.596 201.229 128.331 201.181 128.07 201.128C127.512 201.006 126.959 200.857 126.417 200.682C125.349 200.336 124.774 200.086 123.749 199.549C122.723 199.012 121.654 198.353 120.665 197.668C119.608 196.929 118.89 196.355 117.864 195.483C116.774 194.553 115.355 194.728 114.536 195.913C114.473 196.004 114.409 196.099 114.34 196.19C114.6 195.828 114.377 196.147 114.297 196.232C114.143 196.408 113.989 196.583 113.83 196.748C113.643 196.939 113.447 197.125 113.25 197.306C113.16 197.386 113.069 197.466 112.974 197.545C112.936 197.577 112.548 197.891 112.756 197.726C112.963 197.561 112.644 197.806 112.596 197.838C112.469 197.928 112.341 198.018 112.214 198.109C112.006 198.252 111.788 198.385 111.576 198.518C111.081 198.821 110.571 199.097 110.05 199.353C109.816 199.47 109.582 199.576 109.343 199.682C108.966 199.852 109.231 199.73 109.311 199.698C109.189 199.746 109.072 199.794 108.95 199.842C108.408 200.054 107.86 200.246 107.302 200.41C106.792 200.565 106.276 200.703 105.755 200.82C105.516 200.873 105.277 200.921 105.037 200.969C104.889 200.995 104.745 201.022 104.596 201.048C104.538 201.059 104.043 201.128 104.357 201.086C104.623 201.048 103.958 201.128 103.879 201.133C103.634 201.155 103.39 201.171 103.145 201.181C102.778 201.197 102.406 201.187 102.039 201.171C101.412 201.149 100.785 201.123 100.158 201.101C99.9504 201.096 99.743 201.086 99.5411 201.08C99.2646 201.07 98.9935 201.043 98.7224 201.016C98.3716 200.985 99.0254 201.07 98.6799 201.016C98.4832 200.985 98.2812 200.953 98.0846 200.91C97.5317 200.798 96.9895 200.655 96.458 200.469C96.3357 200.426 95.7085 200.182 96.0487 200.325C95.751 200.198 95.4533 200.054 95.1663 199.9C94.6188 199.613 94.0872 199.278 93.5875 198.917C93.545 198.885 93.2208 198.635 93.4068 198.784C93.5928 198.933 93.1942 198.603 93.1623 198.577C92.9071 198.359 92.6626 198.135 92.4287 197.901C92.1948 197.668 91.9556 197.423 91.7324 197.168C91.642 197.067 91.5516 196.961 91.4666 196.86C91.4666 196.854 91.0573 196.349 91.2859 196.647C90.8553 196.089 90.4779 195.499 90.127 194.893C89.5955 193.984 88.1549 193.452 87.23 194.133C85.4493 195.44 83.5941 196.652 81.6007 197.614C81.3509 197.737 81.0958 197.854 80.8406 197.965C80.5855 198.077 80.6705 198.04 80.3569 198.167C79.8413 198.369 79.3203 198.55 78.7888 198.709C78.2997 198.858 77.8054 198.986 77.3057 199.092C76.6094 199.241 76.4818 199.262 75.8918 199.315C75.3814 199.358 74.8658 199.379 74.3555 199.374C74.1323 199.374 73.9143 199.363 73.6911 199.347C73.5741 199.342 72.8725 199.262 73.3137 199.326C72.4313 199.204 71.5542 198.97 70.7196 198.656C70.608 198.614 70.1881 198.433 70.507 198.577C70.2997 198.486 70.0977 198.39 69.8957 198.284C69.4651 198.066 69.0399 197.827 68.6359 197.561C68.4711 197.455 68.317 197.343 68.1575 197.232C68.1415 197.221 67.8864 197.03 68.0618 197.168C68.2585 197.317 67.9395 197.067 67.897 197.035C67.5515 196.748 67.2219 196.445 66.9083 196.121C66.7329 195.935 66.5575 195.749 66.3927 195.552C66.3289 195.478 66.2704 195.403 66.212 195.329C66.398 195.563 66.2279 195.35 66.1429 195.222C65.8664 194.834 65.6219 194.43 65.404 194.005C65.3455 193.893 65.0797 193.266 65.2232 193.649C65.1329 193.41 65.0478 193.171 64.9734 192.931C64.9096 192.719 64.8512 192.501 64.8033 192.283C64.7767 192.171 64.6545 191.369 64.7076 191.794C64.4897 189.917 62.5761 189.072 61.093 190.295C58.3395 192.565 54.9322 194.515 51.3866 195.377C49.6006 195.812 48.0112 195.956 46.0072 195.77C45.9806 195.77 45.2524 195.669 45.7574 195.749C45.566 195.717 45.3746 195.685 45.1779 195.648C44.859 195.584 44.5401 195.515 44.2211 195.43C43.8384 195.329 43.461 195.212 43.0889 195.084C42.9029 195.02 42.7168 194.946 42.5308 194.877C42.3022 194.781 42.2862 194.776 42.4882 194.861C42.366 194.808 42.2437 194.755 42.1268 194.696C39.0969 193.277 37.0769 191.337 35.6523 188.376C35.3759 187.807 35.7693 188.748 35.5619 188.153C35.4982 187.967 35.4237 187.78 35.3653 187.594C35.243 187.217 35.1367 186.829 35.0516 186.441C35.0091 186.244 34.9772 186.048 34.94 185.851C34.8284 185.218 34.9506 186.255 34.9134 185.617C34.8922 185.218 34.8709 184.825 34.8922 184.426C34.9028 184.23 34.9188 184.033 34.9347 183.836C34.8922 184.309 34.9613 183.677 34.9719 183.618C35.041 183.23 35.1367 182.848 35.2536 182.47C35.3121 182.284 35.3759 182.098 35.4397 181.912C35.4556 181.875 35.7055 181.285 35.5194 181.689C35.7108 181.274 35.9181 180.865 36.1573 180.477C36.9865 179.1 37.9965 178.095 39.4796 177.33C39.6444 177.245 39.8091 177.165 39.9792 177.091C39.5327 177.282 40.245 177.011 40.3301 176.984C40.5055 176.931 40.6809 176.883 40.8563 176.841C40.9573 176.82 41.7122 176.719 41.1859 176.766C41.6165 176.729 42.0364 176.735 42.467 176.745C43.0464 176.756 42.0683 176.634 42.6424 176.766C42.8922 176.825 43.1367 176.873 43.3866 176.942C44.6676 177.303 46.1241 176.277 46.0657 174.901C45.9328 171.493 45.9328 168.081 46.1348 164.673C46.2304 163.031 46.374 161.394 46.56 159.756C46.6025 159.406 46.6398 159.049 46.6876 158.699C46.7142 158.486 46.7408 158.273 46.7673 158.066C46.7195 158.412 46.7673 158.05 46.778 157.992C46.9002 157.141 47.0278 156.291 47.166 155.445C47.7188 152.112 48.4311 148.806 49.2338 145.526C50.1374 141.827 51.0783 138.111 52.1946 134.47C53.1939 131.211 54.6451 128.32 56.495 125.29C58.3235 122.286 60.2319 119.703 62.5016 117.146C64.7714 114.589 67.1528 112.421 69.6087 110.688C72.3303 108.774 75.2645 107.179 78.3157 105.861C78.9801 105.574 77.9542 106.005 78.6293 105.728C78.8366 105.643 79.0439 105.558 79.2512 105.478C79.735 105.287 80.2187 105.101 80.7077 104.92C81.5476 104.612 82.3928 104.325 83.2486 104.059C85.0293 103.496 86.8367 103.017 88.6599 102.608C92.5138 101.747 95.7085 101.316 99.5942 101.045C100.695 100.965 101.768 100.125 101.71 98.9295C101.662 97.8504 100.774 96.7288 99.5942 96.8138L99.6048 96.8404Z" fill="#68461A"/>
<path d="M109.726 172.987C109.726 172.987 112.399 187.323 103.379 187.18C103.379 187.18 92.5082 188.971 97.388 171.775L103.448 169.202L109.726 172.987Z" fill="#EF7F5A" stroke="#68461A" stroke-width="4.40135" stroke-linecap="round" stroke-linejoin="round"/>
<path d="M92.0568 163.153C88.1285 165.827 88.91 171.844 93.1093 173.827C95.0974 174.762 97.4256 174.906 99.4934 174.13C101.774 173.274 103.496 171.711 104.963 169.803H101.056C103.613 173.444 107.727 176.389 112.389 175.14C114.606 174.545 116.349 172.971 117.136 170.818C117.923 168.665 117.439 166.428 116.036 164.684C115.291 163.759 113.601 163.849 112.836 164.684C111.932 165.667 112.044 166.895 112.836 167.884C112.495 167.464 112.82 167.921 112.873 168.001C113.086 168.325 112.862 167.794 112.878 168.012C112.889 168.144 112.958 168.293 112.99 168.426C113.117 168.921 113.016 167.996 112.99 168.511C112.985 168.649 112.963 168.809 112.979 168.947C113.006 169.208 113.107 168.469 112.974 168.947C112.937 169.091 112.899 169.229 112.862 169.372C112.793 169.622 112.729 169.665 112.862 169.404C112.783 169.558 112.687 169.713 112.607 169.867C112.426 170.223 112.767 169.744 112.596 169.904C112.49 170 112.394 170.117 112.293 170.223C111.948 170.584 112.618 170.053 112.15 170.34C112.012 170.425 111.874 170.51 111.73 170.59C111.549 170.685 111.347 170.739 111.645 170.638C111.459 170.696 111.273 170.76 111.082 170.808C111.023 170.824 110.491 170.935 110.8 170.877C111.108 170.818 110.518 170.898 110.507 170.898C110.343 170.909 110.173 170.909 110.008 170.898C109.843 170.887 109.673 170.877 109.508 170.866C110.008 170.893 109.407 170.84 109.317 170.818C108.987 170.744 108.679 170.643 108.36 170.531C108.769 170.675 108.174 170.436 108.131 170.414C107.977 170.335 107.823 170.249 107.669 170.159C107.515 170.069 107.371 169.978 107.222 169.877C107.196 169.861 106.675 169.457 107.004 169.729C106.733 169.505 106.468 169.266 106.218 169.022C105.968 168.777 105.723 168.511 105.495 168.24C105.479 168.224 105.054 167.693 105.314 168.033C105.186 167.863 105.064 167.693 104.942 167.517C104.474 166.847 103.836 166.396 102.991 166.396C102.146 166.396 101.545 166.858 101.04 167.517C101.317 167.156 100.897 167.677 100.875 167.698C100.764 167.826 100.647 167.953 100.53 168.081C100.269 168.357 99.9878 168.607 99.7113 168.862C99.4083 169.139 99.807 168.814 99.605 168.958C99.4668 169.053 99.3286 169.154 99.1851 169.25C98.8662 169.457 98.5366 169.617 98.207 169.792C97.9891 169.909 98.4834 169.713 98.0848 169.835C97.8881 169.893 97.6967 169.962 97.4947 170.01C97.3406 170.047 97.1864 170.074 97.0376 170.106C96.7718 170.164 97.4203 170.095 96.9844 170.101C96.793 170.101 96.607 170.111 96.4156 170.106C96.3519 170.106 95.8256 170.063 96.1499 170.095C96.4741 170.127 95.9585 170.053 95.8947 170.042C95.7087 170 95.5332 169.941 95.3525 169.893C94.9485 169.776 95.512 170 95.2887 169.877C95.1558 169.803 95.0123 169.739 94.8794 169.659C94.7891 169.606 94.3797 169.261 94.7359 169.585C94.6243 169.479 94.5073 169.383 94.3957 169.271C94.2256 169.096 94.1724 168.984 94.3425 169.245C94.2522 169.107 94.1724 168.963 94.0821 168.82C94.114 169.059 93.8748 168.479 94.0821 168.82C94.0661 168.692 94.0077 168.543 93.9651 168.421C93.8163 167.932 93.9598 168.873 93.9492 168.362C93.9492 168.224 93.9492 168.086 93.9439 167.948C93.9439 167.533 93.8535 167.836 93.9226 167.974C93.8854 167.905 94.0236 167.57 94.0342 167.496C94.114 167.108 93.8801 167.703 94.013 167.507C94.0874 167.4 94.1459 167.267 94.2096 167.156C94.4701 166.699 93.912 167.507 94.2575 167.113C94.5499 166.778 93.9013 167.331 94.3053 167.055C95.2834 166.39 95.8097 165.035 95.1186 163.961C94.4914 162.988 93.0721 162.435 92.0249 163.148L92.0568 163.153Z" fill="#68461A"/>
<path d="M45.6137 126.566C37.6987 126.566 29.1724 123.626 21.6082 118.284C13.555 112.596 7.30911 104.979 2.25925 98.281C1.69579 97.5315 1.77021 96.4843 2.42935 95.8198C2.79613 95.453 3.27985 95.267 3.76358 95.267C4.15694 95.267 4.55029 95.3892 4.88518 95.6391C7.20812 97.3667 10.1849 98.3235 13.2626 98.3235C13.8739 98.3235 14.4799 98.2863 15.0806 98.2119C10.5251 96.1972 6.69781 92.6198 4.45461 88.1015C4.13036 87.4477 4.21541 86.661 4.67255 86.0869C5.03402 85.635 5.57621 85.3799 6.13967 85.3799C6.28851 85.3799 6.43735 85.3958 6.58619 85.433C8.01609 85.7839 9.50979 85.9593 11.0247 85.9593C14.8786 85.9593 18.6846 84.8271 21.8687 82.8124C18.2859 82.2011 15.0168 80.2025 12.9915 77.2948C12.5876 76.7154 12.545 75.9553 12.8799 75.328C13.2095 74.7167 13.8474 74.334 14.5384 74.334C14.5543 74.334 14.5703 74.334 14.5809 74.334C14.8201 74.334 15.054 74.3446 15.2879 74.3446C26.169 74.3446 36.9385 68.4177 42.7273 59.2482C43.0037 58.807 43.4555 58.4987 43.9658 58.403C44.0827 58.3817 44.1997 58.3711 44.3166 58.3711C44.7153 58.3711 45.1034 58.4987 45.4329 58.7379C55.8782 66.4084 61.231 81.0157 61.8955 92.0935C62.6822 105.117 57.9725 118.082 49.6057 125.933C49.2974 126.22 48.904 126.395 48.4841 126.433C47.5379 126.518 46.5652 126.56 45.603 126.56L45.6137 126.566Z" fill="#FF603B"/>
<path d="M44.3222 60.2581C53.6459 67.0993 59.3283 80.6702 60.0246 92.2105C60.721 103.751 56.7608 116.652 48.3249 124.561C47.4212 124.641 46.5176 124.684 45.6139 124.684C37.4491 124.684 29.4012 121.484 22.6929 116.747C15.2403 111.485 9.2496 104.431 3.76385 97.1487C6.48546 99.1739 9.87684 100.205 13.2629 100.205C16.1015 100.205 18.9347 99.4823 21.3693 98.0151C14.9373 97.2444 9.01571 93.0663 6.13995 87.2669C7.73996 87.6603 9.38249 87.8463 11.025 87.8463C17.1168 87.8463 23.2244 85.247 27.2856 80.6861C26.2756 80.9891 25.2231 81.1326 24.1706 81.1326C20.4337 81.1326 16.6756 79.3041 14.5333 76.221C14.7832 76.2263 15.0383 76.2316 15.2882 76.2316C26.8072 76.2316 38.1614 70.007 44.3169 60.2581M44.3169 56.4946C44.083 56.4946 43.8491 56.5159 43.6152 56.5584C42.5893 56.7551 41.691 57.3664 41.1328 58.2488C35.679 66.8867 25.5367 72.4628 15.2882 72.4628C15.0649 72.4628 14.847 72.4628 14.6237 72.4575C14.5918 72.4575 14.5652 72.4575 14.5333 72.4575C13.1513 72.4575 11.8755 73.2176 11.2164 74.4402C10.5466 75.6894 10.6317 77.2097 11.4396 78.3738C12.827 80.3672 14.7194 81.9832 16.8988 83.1101C15.0224 83.7426 13.029 84.0775 11.0197 84.0775C9.65359 84.0775 8.30873 83.918 7.02766 83.6044C6.72998 83.53 6.43231 83.4981 6.13463 83.4981C5.00771 83.4981 3.91801 84.0084 3.19508 84.9121C2.28079 86.0549 2.11069 87.623 2.7592 88.936C3.81169 91.057 5.18313 92.9812 6.8044 94.6663C6.52799 94.4962 6.26221 94.3155 6.00706 94.1241C5.33728 93.6244 4.54525 93.3799 3.75854 93.3799C2.78577 93.3799 1.81833 93.7573 1.09008 94.4909C-0.228197 95.8198 -0.377035 97.9141 0.749882 99.4132C5.8848 106.233 12.2476 113.989 20.5135 119.825C26.0896 123.759 34.9667 128.453 45.6033 128.453C46.6239 128.453 47.6498 128.41 48.6492 128.32C49.489 128.245 50.2757 127.889 50.8924 127.315C59.6525 119.092 64.5908 105.558 63.7722 91.9925C63.0758 80.4735 57.4838 65.2601 46.5442 57.2282C45.8957 56.7498 45.1089 56.4999 44.3169 56.4999V56.4946Z" fill="#664620"/>
<path d="M162.473 130.834C160.665 130.834 158.874 130.69 157.141 130.409C156.726 130.34 156.344 130.138 156.062 129.824C148.29 121.388 144.543 108.11 146.276 95.182C147.748 84.1839 154.154 70.0017 165.13 63.118C165.433 62.9266 165.779 62.8309 166.13 62.8309C166.289 62.8309 166.454 62.8522 166.613 62.8947C167.118 63.0276 167.544 63.3678 167.788 63.825C173.035 73.6642 183.624 80.3726 194.76 80.9254C195.467 80.9626 196.094 81.3932 196.386 82.0364C196.679 82.6796 196.578 83.4397 196.131 83.9872C193.904 86.7354 190.518 88.4949 186.877 88.8457C190.289 91.3653 194.563 92.8271 198.863 92.8271C199.895 92.8271 200.926 92.7421 201.92 92.5773C202.026 92.5613 202.127 92.5507 202.234 92.5507C202.845 92.5507 203.43 92.8537 203.786 93.3693C204.2 93.97 204.227 94.762 203.855 95.3946C201.293 99.7321 197.21 103.017 192.527 104.697C193.468 104.883 194.436 104.984 195.408 104.984C198.13 104.984 200.713 104.256 202.871 102.879C203.185 102.682 203.536 102.587 203.881 102.587C204.413 102.587 204.939 102.815 205.311 103.24C205.923 103.953 205.917 105 205.301 105.707C199.778 112.022 192.99 119.166 184.543 124.248C177.372 128.564 169.739 130.845 162.467 130.845L162.473 130.834Z" fill="#FF603B"/>
<path d="M166.13 64.7073C171.674 75.0994 182.901 82.217 194.669 82.8017C192.485 85.4968 189.003 87.0224 185.548 87.0224C184.214 87.0224 182.879 86.7938 181.63 86.3207C185.665 91.5779 192.267 94.7035 198.874 94.7035C200.001 94.7035 201.128 94.6131 202.244 94.4271C198.949 100.003 192.74 103.74 186.271 104.038C188.923 105.914 192.171 106.855 195.419 106.855C198.401 106.855 201.378 106.058 203.892 104.458C197.885 111.32 191.395 117.922 183.581 122.621C177.218 126.454 169.851 128.947 162.478 128.947C160.798 128.947 159.118 128.819 157.449 128.543C149.619 120.038 146.611 106.887 148.147 95.4264C149.683 83.9659 156.344 70.8469 166.135 64.7073M166.13 60.9438C165.428 60.9438 164.732 61.1405 164.131 61.5179C152.633 68.7259 145.941 83.4928 144.41 94.9267C142.603 108.397 146.536 122.254 154.675 131.094C155.243 131.716 156.009 132.126 156.838 132.259C158.672 132.556 160.57 132.71 162.473 132.71C170.085 132.71 178.053 130.334 185.516 125.843C194.164 120.639 201.064 113.393 206.672 106.977C207.278 106.308 207.65 105.42 207.65 104.447C207.65 102.406 206.024 100.742 203.998 100.684C203.961 100.684 203.924 100.684 203.881 100.684C203.706 100.684 203.531 100.694 203.361 100.721C202.797 100.801 202.276 101.003 201.824 101.3C201.564 101.465 201.298 101.614 201.027 101.757C202.739 100.221 204.232 98.4297 205.423 96.4257C205.79 95.8463 206.002 95.1553 206.002 94.4164C206.002 92.3805 204.392 90.7274 202.372 90.6529C202.324 90.6529 202.281 90.6529 202.234 90.6529C202.17 90.6529 202.106 90.6529 202.042 90.6529C201.872 90.6636 201.707 90.6795 201.543 90.7114C200.665 90.8549 199.767 90.9294 198.858 90.9294C196.434 90.9294 194.026 90.4191 191.804 89.4888C194.053 88.5214 196.057 87.0436 197.582 85.1619C198.475 84.0615 198.672 82.5519 198.093 81.2549C197.513 79.9579 196.259 79.102 194.84 79.0276C184.352 78.5067 174.38 72.1864 169.436 62.9212C168.947 62.0016 168.091 61.3265 167.081 61.0554C166.762 60.9704 166.438 60.9279 166.114 60.9279L166.13 60.9438Z" fill="#664620"/>
<path d="M147.727 143.916C131.775 143.916 116.588 140.918 102.576 135.001C90.9613 138.93 78.6184 140.923 65.8768 140.923C57.7811 140.923 49.5631 140.11 41.4514 138.499C40.8188 138.371 40.2979 137.936 40.064 137.335C31.3782 114.983 33.9085 88.4895 46.6714 68.1837C59.4289 47.8833 82.2065 34.1104 106.116 32.2446C106.164 32.2446 106.212 32.2446 106.265 32.2446C106.361 32.2446 106.456 32.2499 106.547 32.2659C130.255 35.8699 151.964 51.2693 163.206 72.4468C174.449 93.6244 175.039 120.234 164.742 141.89C164.466 142.47 163.913 142.874 163.275 142.948C158.103 143.586 152.873 143.91 147.722 143.91L147.727 143.916Z" fill="#FF603B"/>
<path d="M106.26 34.1316C129.42 37.6559 150.555 52.6407 161.542 73.3345C172.53 94.0283 173.104 119.931 163.041 141.088C157.949 141.715 152.83 142.034 147.716 142.034C132.264 142.034 116.896 139.116 102.64 132.987C90.7806 137.09 78.3473 139.041 65.8715 139.041C57.8183 139.041 49.7545 138.228 41.8129 136.654C33.3238 114.818 35.7903 89.0263 48.2554 69.1883C60.7206 49.3503 82.8922 35.9495 106.254 34.1263M106.254 30.3628C106.159 30.3628 106.058 30.3628 105.962 30.3734C81.4729 32.2817 58.1425 46.3895 45.0714 67.1843C32.0002 87.9791 29.4062 115.121 38.3046 138.015C38.7723 139.217 39.8195 140.094 41.0793 140.344C49.3133 141.975 57.6535 142.805 65.8715 142.805C78.5706 142.805 90.8816 140.854 102.491 137.011C116.551 142.842 131.754 145.797 147.711 145.797C152.936 145.797 158.247 145.468 163.493 144.825C164.769 144.665 165.88 143.868 166.433 142.704C176.979 120.521 176.373 93.2628 164.854 71.5644C153.335 49.8712 131.094 34.0997 106.813 30.4053C106.627 30.3787 106.435 30.3628 106.244 30.3628H106.254Z" fill="#664620"/>
<path d="M50.8709 57.8288C44.8483 60.6515 39.8516 65.611 36.9865 71.6123C34.116 77.6137 33.3984 84.6144 34.9825 91.0729C30.5014 94.3952 27.0834 100.652 27.8861 106.169C29.3851 116.482 39.1446 124.439 49.5048 125.566C59.865 126.693 70.273 121.872 77.6193 114.478C84.9655 107.089 89.5741 97.3772 92.721 87.4423C95.4054 78.9745 85.1887 71.1871 77.885 66.1213C70.5813 61.0608 58.9082 54.0494 50.8603 57.8235L50.8709 57.8288Z" fill="#FFE3DB"/>
<path d="M72.4738 71.8249C66.4352 68.71 59.4026 68.391 52.7421 67.0515C51.3494 66.7697 49.9407 66.4189 48.5587 65.983C43.7746 71.6017 40.2556 78.3685 39.7613 85.6775C39.1712 94.443 43.7533 103.852 51.8969 107.142C59.2112 110.098 67.9129 107.626 73.9356 102.533C79.3256 97.9832 82.8658 91.6523 85.4333 85.0449C82.0898 79.607 78.0658 74.7113 72.4684 71.8196L72.4738 71.8249Z" fill="#664620"/>
<path d="M72.6597 69.8581C67.7002 67.0621 61.9221 66.7963 56.447 65.6109C55.3041 65.3611 54.1453 65.0475 53.0078 64.6594C49.0529 69.7412 46.1453 75.8595 45.7147 82.4562C45.2044 90.3659 48.9466 98.839 55.6337 101.784C61.6404 104.426 68.8059 102.172 73.776 97.5633C78.2199 93.4383 81.1541 87.7187 83.2857 81.7545C80.5534 76.8588 77.2524 72.4522 72.6597 69.8634V69.8581Z" fill="white"/>
<path d="M76.8112 86.2356C76.5561 93.1725 71.671 98.6264 65.9035 98.4138C60.1307 98.2011 55.6603 92.4071 55.9154 85.4702C56.1706 78.5332 61.0503 73.0794 66.8231 73.292C72.5959 73.5046 77.0664 79.2987 76.8112 86.2356Z" fill="#664620"/>
<path d="M64.5746 78.2621C64.4736 81.0475 62.5121 83.2322 60.1945 83.1471C57.8768 83.0621 56.0855 80.7392 56.1865 77.9538C56.2875 75.1684 58.2489 72.9836 60.5666 73.0687C62.8842 73.1537 64.6756 75.4767 64.5746 78.2621Z" fill="white"/>
<path d="M98.3022 87.0543C100.131 77.4862 98.0152 67.227 92.5507 59.1631C87.0862 51.0993 78.3367 45.3318 68.7738 43.4873C62.3844 42.2541 55.7558 42.7059 49.377 41.4248C42.9983 40.1384 36.4441 36.4706 34.5251 30.2513C33.2919 32.5318 34.1211 34.977 34.9504 37.4275C35.7796 39.878 37.6667 41.9564 40.0268 43.0195C37.4381 42.9079 33.9989 42.6208 31.9789 40.9996C30.8627 43.5936 31.3251 46.7033 32.8082 49.1059C34.2966 51.5033 36.7045 53.2362 39.3198 54.3046C41.9351 55.3731 44.7577 55.8249 47.5697 56.0907C44.1677 57.308 39.4581 57.8874 36.056 56.6648C39.0275 62.7778 46.0813 65.7173 52.7418 67.0516C59.4024 68.3911 66.4349 68.71 72.4735 71.825C81.037 76.2423 85.9327 85.3586 90.3181 93.9381C93.3268 92.455 97.6697 90.35 98.3022 87.0543Z" fill="#FFD146"/>
<g style="mix-blend-mode:multiply">
<path d="M66.9877 65.0582C69.0874 64.601 71.1817 64.1492 73.2814 63.6921C61.2468 61.9751 49.2122 60.2582 37.1776 58.5359C40.5689 63.3838 46.8095 65.8555 52.7471 67.0516C59.4076 68.3911 66.4402 68.71 72.4788 71.825C80.3353 75.8808 85.0981 83.8809 89.2177 91.8012C89.8131 91.7587 90.4084 91.7161 91.0038 91.6683C88.447 79.4104 78.9213 68.8589 66.9877 65.0582Z" fill="#E0E0E0"/>
</g>
<path d="M159.778 61.8101C165.577 65.0686 170.197 70.379 172.621 76.5717C175.044 82.7644 175.252 89.8023 173.2 96.1279C177.426 99.7692 180.376 106.254 179.175 111.703C176.926 121.877 166.609 129.101 156.195 129.468C145.782 129.834 135.751 124.264 128.963 116.359C122.175 108.45 118.289 98.4296 115.876 88.2927C113.814 79.6494 124.578 72.6275 132.227 68.1145C139.882 63.6015 152.033 57.4566 159.783 61.8101H159.778Z" fill="#FFE3DB"/>
<path d="M137.208 74.1905C143.459 71.522 150.492 71.7187 157.237 70.8682C158.646 70.6928 160.076 70.4376 161.49 70.108C165.854 76.0616 168.862 83.0676 168.825 90.3925C168.777 99.1793 163.52 108.227 155.153 110.911C147.642 113.324 139.148 110.225 133.508 104.708C128.469 99.7746 125.396 93.2045 123.318 86.4271C127.05 81.2443 131.424 76.6569 137.213 74.1851L137.208 74.1905Z" fill="#664620"/>
<path d="M137.229 72.2181C142.38 69.7942 148.163 69.9483 153.713 69.1669C154.871 69.0021 156.046 68.7736 157.21 68.4706C160.782 73.8288 163.238 80.1437 163.185 86.7511C163.116 94.6767 158.768 102.857 151.879 105.303C145.697 107.498 138.717 104.729 134.093 99.7691C129.962 95.3305 127.453 89.4142 125.763 83.3065C128.846 78.6235 132.455 74.4666 137.229 72.2234V72.2181Z" fill="white"/>
<path d="M131.833 88.2502C131.578 95.1871 136.054 100.981 141.821 101.194C147.594 101.406 152.474 95.9526 152.729 89.0157C152.984 82.0787 148.509 76.2847 142.741 76.0721C136.968 75.8594 132.088 81.3133 131.833 88.2502Z" fill="#664620"/>
<path d="M144.618 81.1858C144.517 83.9712 146.313 86.2942 148.626 86.3792C150.938 86.4643 152.9 84.2742 153.006 81.4941C153.107 78.7087 151.31 76.3858 148.998 76.3007C146.68 76.2157 144.724 78.4057 144.618 81.1858Z" fill="white"/>
<path d="M34.8391 143.772C38.1401 145.021 41.7813 144.851 45.3003 144.633C49.9408 144.346 54.5973 143.99 59.2432 143.522C68.9868 142.539 78.2094 138.855 86.2679 133.295C86.7835 132.939 87.3098 132.588 87.836 132.253C92.3065 129.399 97.6594 127.304 102.842 127.538C108.03 127.682 113.213 130.164 117.465 133.337C117.97 133.715 118.465 134.098 118.954 134.491C126.587 140.625 135.517 144.973 145.165 146.664C149.763 147.472 154.383 148.163 158.991 148.79C162.489 149.263 166.109 149.699 169.49 148.694C174.082 147.334 178.149 142.603 175.098 137.345C174.136 135.687 172.615 134.411 170.872 133.614C166.136 131.44 161.006 132.359 155.993 132.327C148.259 132.28 140.557 129.893 134.157 125.561C128.416 121.675 123.796 116.343 118.242 112.192C113.989 109.018 108.806 106.536 103.618 106.392C98.4354 106.159 93.0826 108.253 88.6121 111.107C82.7702 114.839 77.7735 119.82 71.7668 123.275C65.0638 127.129 57.2073 128.947 49.4943 128.431C44.4923 128.096 39.4477 126.805 34.5626 128.628C32.766 129.298 31.1553 130.456 30.0762 132.04C26.6477 137.064 30.358 142.076 34.8391 143.767V143.772Z" fill="white"/>
<path d="M110.342 87.4953C109.215 77.8209 112.075 67.7371 118.114 60.0985C124.152 52.4546 133.3 47.3409 142.969 46.1981C149.433 45.4326 156.009 46.3735 162.467 45.5549C168.92 44.7363 175.73 41.5575 178.095 35.4977C179.158 37.8578 178.154 40.2392 177.144 42.626C176.139 45.0127 174.103 46.9423 171.674 47.83C174.263 47.9044 177.718 47.8725 179.844 46.4001C180.769 49.0685 180.083 52.1356 178.425 54.4214C176.766 56.7071 174.236 58.254 171.552 59.131C168.867 60.0028 166.018 60.2473 163.196 60.3111C166.502 61.7729 171.153 62.6925 174.635 61.7251C171.227 67.6042 163.977 70.0228 157.237 70.868C150.496 71.7185 143.459 71.5218 137.207 74.1903C128.346 77.975 122.797 86.7033 117.8 94.9425C114.908 93.2415 110.73 90.8282 110.342 87.4953Z" fill="#FFD146"/>
<g style="mix-blend-mode:multiply">
<path d="M171.552 59.1312C174.237 58.2594 176.767 56.7072 178.425 54.4215C179.776 52.561 180.467 50.1796 180.18 47.9152C178.691 50.7962 175.709 52.9544 172.546 53.9484C168.363 55.2614 163.876 54.9531 159.502 54.6979C155.127 54.4481 150.603 54.2939 146.516 55.8727C149.072 56.0162 151.597 56.6541 153.915 57.7385C144.953 59.6255 136.496 63.8674 129.622 69.9219C133.141 69.3532 136.655 68.7844 140.174 68.2103C128.777 70.9106 118.981 79.607 114.941 90.5998C114.643 91.4025 114.569 92.2051 114.67 92.9865C115.733 93.7201 116.838 94.3686 117.806 94.9374C122.802 86.6981 128.352 77.9645 137.213 74.1851C143.464 71.5166 150.497 71.7133 157.243 70.8628C163.983 70.0123 171.233 67.599 174.641 61.7199C171.159 62.6873 166.508 61.7677 163.201 60.3059C166.024 60.2475 168.873 60.0029 171.558 59.1259L171.552 59.1312Z" fill="#E0E0E0"/>
</g>
<path d="M121.452 43.1788C111.602 48.1011 99.9237 47.6759 90.4566 42.0466L104.926 3.56134C105.319 2.51947 106.329 1.84438 107.44 1.88691C108.551 1.92943 109.513 2.67362 109.827 3.74207L121.452 43.1842V43.1788Z" fill="#FFD146"/>
<path d="M114.207 18.5993C109.535 18.0731 104.931 16.8877 100.588 15.0963L98.7065 20.0983C104.15 22.3203 109.954 23.6598 115.823 24.0904L114.207 18.6046V18.5993Z" fill="white"/>
<path d="M121.452 43.179L120.081 38.5172C111.103 38.7086 102.05 36.4175 94.2467 31.963L92.3383 37.0448C99.8972 41.191 108.461 43.5458 117.088 43.8647C118.034 43.8966 118.98 43.902 119.927 43.886C120.442 43.6627 120.952 43.4342 121.457 43.179H121.452Z" fill="white"/>
<path d="M97.3879 23.6016L95.4849 28.6621C102.331 31.9205 109.864 33.7651 117.444 34.0468C117.885 34.0628 118.326 34.0627 118.767 34.0681L117.173 28.6567C110.331 28.3431 103.543 26.6102 97.3932 23.6016H97.3879Z" fill="white"/>
<path d="M103.873 6.35742L101.992 11.3594C105.505 12.5714 109.141 13.4325 112.825 13.9269L111.156 8.25511C108.684 7.80328 106.249 7.17072 103.873 6.35742Z" fill="white"/>
<g style="mix-blend-mode:multiply">
<path d="M107.44 1.88159C107.44 1.88159 107.408 1.88691 107.387 1.88691C109.046 9.45107 110.226 17.1215 110.853 24.8399C111.23 29.4698 111.289 34.5462 108.461 38.2247C106.016 41.3981 101.742 42.8493 97.7552 42.4347C95.4163 42.1955 93.1891 41.3662 91.1479 40.1808L90.4515 42.036C99.9187 47.6653 111.597 48.0958 121.447 43.1682L109.827 3.73675C109.513 2.66831 108.551 1.92412 107.44 1.88159Z" fill="#E0E0E0"/>
</g>
<path d="M91.1529 40.1915L96.3144 26.4611L97.3882 23.6013L100.306 15.8352L100.583 15.0963L104.92 3.56134C105.314 2.51947 106.324 1.84438 107.435 1.88691C108.546 1.92943 109.508 2.67362 109.821 3.74207L111.15 8.25505L112.819 13.9268L114.196 18.6046L115.812 24.0904L121.441 43.1842C111.592 48.1064 99.9131 47.6812 90.4459 42.0519L91.1423 40.1968L91.1529 40.1915Z" stroke="#664620" stroke-width="3.76348" stroke-linecap="round" stroke-linejoin="round"/>
<g style="mix-blend-mode:multiply">
<path d="M175.831 139.036C173.04 142.481 168.092 143.756 163.552 144.086C151.087 145 138.324 141.131 128.469 133.444C122.292 128.628 116.812 122.175 109.162 120.506C104.038 119.39 98.6586 120.655 93.8639 122.781C89.0692 124.907 84.6998 127.863 80.0911 130.372C70.2093 135.746 59.19 139.015 47.9793 139.908C44.0085 140.222 39.958 140.237 36.1148 139.19C33.4304 138.457 30.8523 137.138 28.8111 135.273C28.3167 139.079 31.336 142.443 34.8443 143.772C38.1453 145.022 41.7866 144.851 45.3055 144.634C49.9461 144.346 54.6026 143.99 59.2485 143.523C68.992 142.539 78.2147 138.855 86.2732 133.295C86.7888 132.939 87.3151 132.588 87.8413 132.253C92.3118 129.399 97.6646 127.305 102.847 127.538C108.035 127.682 113.218 130.164 117.471 133.338C117.976 133.715 118.47 134.098 118.959 134.491C126.592 140.626 135.523 144.974 145.171 146.664C149.769 147.472 154.388 148.163 158.997 148.79C162.494 149.263 166.114 149.699 169.495 148.695C173.588 147.483 177.25 143.592 175.837 139.036H175.831Z" fill="#E0E0E0"/>
</g>
<path d="M30.0759 132.046C31.155 130.462 32.7657 129.303 34.5623 128.628C39.4474 126.81 44.492 128.096 49.494 128.431C57.207 128.952 65.0635 127.134 71.7665 123.275C77.7732 119.82 82.7699 114.839 88.6118 111.107C93.0823 108.253 98.4351 106.159 103.618 106.392C108.806 106.536 113.989 109.018 118.241 112.192C123.796 116.338 128.415 121.67 134.156 125.561C140.556 129.893 148.264 132.285 155.993 132.327C161.006 132.359 166.135 131.44 170.871 133.614C172.615 134.411 174.135 135.687 175.097 137.345C177.537 141.555 175.422 145.42 172.126 147.498C172.099 147.514 172.073 147.53 172.046 147.546C171.966 147.594 171.887 147.642 171.802 147.69C171.754 147.716 171.711 147.743 171.663 147.769C171.589 147.812 171.52 147.849 171.446 147.886C171.387 147.918 171.329 147.945 171.27 147.977C171.201 148.009 171.137 148.046 171.068 148.078C171.004 148.11 170.935 148.142 170.866 148.173C170.802 148.2 170.744 148.232 170.68 148.258C170.606 148.29 170.531 148.322 170.452 148.354C170.393 148.375 170.34 148.402 170.281 148.423C170.196 148.455 170.106 148.487 170.021 148.519C169.973 148.535 169.931 148.551 169.883 148.567C169.75 148.615 169.612 148.657 169.479 148.694C168.634 148.944 167.772 149.104 166.906 149.199C164.296 149.481 161.606 149.146 158.986 148.79C154.377 148.163 149.763 147.472 145.16 146.664C135.517 144.973 126.587 140.625 118.948 134.491C118.459 134.098 117.965 133.715 117.46 133.337C113.207 130.164 108.025 127.682 102.836 127.538C97.6537 127.304 92.3009 129.399 87.8304 132.253C87.2989 132.593 86.7779 132.939 86.2623 133.295C78.1985 138.855 68.9758 142.539 59.2376 143.522C57.9406 143.655 56.6489 143.772 55.3518 143.889C51.9977 144.181 48.6435 144.426 45.2946 144.633C44.8534 144.66 44.4122 144.686 43.971 144.708C40.872 144.867 37.7198 144.862 34.8334 143.767C34.6368 143.692 34.4454 143.613 34.2487 143.522C34.2062 143.501 34.1637 143.485 34.1265 143.464C33.9351 143.373 33.7437 143.283 33.5577 143.182C33.5417 143.171 33.5258 143.166 33.5152 143.155C33.3291 143.054 33.1484 142.948 32.9677 142.837C32.9464 142.826 32.9304 142.815 32.9092 142.799C32.7178 142.677 32.5265 142.549 32.3404 142.411C29.1776 140.104 27.3171 136.075 30.0706 132.035L30.0759 132.046Z" stroke="#664620" stroke-width="4.70435" stroke-miterlimit="10"/>
<g style="mix-blend-mode:screen">
<path d="M136.793 52.1304C137.521 53.6347 136.91 55.4952 135.82 56.7603C134.725 58.0254 133.226 58.844 131.828 59.7583C127.921 62.3045 125.423 65.5843 122.584 69.167C120.437 71.878 119.193 69.7836 118.853 66.876C117.885 58.6739 129.676 51.5669 136.798 52.1304H136.793Z" fill="#FFBF15"/>
</g>
<g style="mix-blend-mode:screen">
<path d="M74.4933 49.3185C71.272 47.7344 67.668 46.7457 64.0959 47.0806C63.0487 47.1816 61.975 47.4102 61.1298 48.0374C60.2899 48.6647 59.7371 49.781 60.0294 50.7909C60.4972 52.3909 62.5331 52.7843 64.1863 52.9969C69.9059 53.7411 75.4395 55.8461 80.2129 59.0833C83.3438 61.2096 85.5498 58.1371 83.498 55.373C81.595 52.8162 77.2947 50.6899 74.488 49.3132L74.4933 49.3185Z" fill="#FFBF15"/>
</g>
<path d="M98.3022 87.0543C100.131 77.4862 98.0152 67.227 92.5507 59.1631C87.0862 51.0993 78.3367 45.3318 68.7738 43.4873C62.3844 42.2541 55.7558 42.7059 49.377 41.4248C42.9983 40.1384 36.4441 36.4706 34.5251 30.2513C33.2919 32.5318 34.1211 34.977 34.9504 37.4275C35.7796 39.878 37.6667 41.9564 40.0268 43.0195C37.4381 42.9079 33.9989 42.6208 31.9789 40.9996C30.8627 43.5936 31.3251 46.7033 32.8082 49.1059C34.2966 51.5033 36.7045 53.2362 39.3198 54.3046C41.9351 55.3731 44.7577 55.8249 47.5697 56.0907C44.1677 57.308 39.4581 57.8874 36.056 56.6648C39.0275 62.7778 46.0813 65.7173 52.7418 67.0516C59.4024 68.3911 66.4349 68.71 72.4735 71.825C81.037 76.2423 85.9327 85.3586 90.3181 93.9381C93.3268 92.455 97.6697 90.35 98.3022 87.0543Z" stroke="#664620" stroke-width="3.2957" stroke-linecap="round" stroke-linejoin="round"/>
<path d="M110.342 87.4953C109.215 77.8209 112.075 67.7371 118.114 60.0985C124.152 52.4546 133.3 47.3409 142.969 46.1981C149.433 45.4326 156.009 46.3735 162.467 45.5549C168.92 44.7363 175.73 41.5575 178.095 35.4977C179.158 37.8578 178.154 40.2392 177.144 42.626C176.139 45.0127 174.103 46.9423 171.674 47.83C174.263 47.9044 177.718 47.8725 179.844 46.4001C180.769 49.0685 180.083 52.1356 178.425 54.4214C176.766 56.7071 174.236 58.254 171.552 59.131C168.867 60.0028 166.018 60.2473 163.196 60.3111C166.502 61.7729 171.153 62.6925 174.635 61.7251C171.227 67.6042 163.977 70.0228 157.237 70.868C150.496 71.7185 143.459 71.5218 137.207 74.1903C128.346 77.975 122.797 86.7033 117.8 94.9425C114.908 93.2415 110.73 90.8282 110.342 87.4953Z" stroke="#664620" stroke-width="3.2957" stroke-linecap="round" stroke-linejoin="round"/>
<path d="M102.778 92.7314C102.619 97.1381 98.9139 100.583 94.5072 100.423C90.1005 100.264 86.656 96.5587 86.8155 92.152C86.9749 87.7453 90.68 84.3008 95.0866 84.4603C99.4933 84.6197 102.938 88.3247 102.778 92.7314Z" fill="white"/>
<path d="M106.823 92.8803C106.664 97.287 110.103 100.992 114.515 101.151C118.922 101.311 122.627 97.8717 122.786 93.4597C122.946 89.053 119.507 85.348 115.095 85.1886C110.688 85.0291 106.983 88.4683 106.823 92.8803Z" fill="white"/>
<path d="M102.129 91.748C101.97 96.1547 98.265 99.5992 93.8583 99.4398C89.4516 99.2803 86.0071 95.5753 86.1666 91.1686C86.326 86.7619 90.031 83.3174 94.4377 83.4769C98.8444 83.6363 102.289 87.3414 102.129 91.748Z" stroke="#664620" stroke-width="3.2957" stroke-linecap="round" stroke-linejoin="round"/>
<path d="M106.175 91.8968C106.016 96.3034 109.455 100.008 113.867 100.168C118.273 100.327 121.978 96.8882 122.138 92.4762C122.297 88.0695 118.858 84.3645 114.446 84.205C110.04 84.0456 106.335 87.4848 106.175 91.8968Z" stroke="#664620" stroke-width="3.2957" stroke-linecap="round" stroke-linejoin="round"/>
<path d="M73.5901 155.078C76.62 156.487 79.517 158.162 82.2493 160.081C83.1848 160.74 84.7157 160.282 85.2313 159.299C85.8214 158.183 85.4493 157.019 84.4499 156.317C81.7124 154.398 78.8154 152.724 75.7907 151.315C75.2486 151.06 74.7064 150.932 74.111 151.097C73.606 151.235 73.0585 151.629 72.8087 152.102C72.2984 153.064 72.4844 154.573 73.5901 155.084V155.078Z" fill="#68461A"/>
<path d="M121.808 159.56C123.254 158.778 124.727 158.061 126.231 157.407C126.332 157.364 126.917 157.093 126.428 157.322C126.608 157.237 126.8 157.168 126.986 157.093C127.358 156.944 127.735 156.796 128.113 156.652C128.894 156.354 129.681 156.078 130.473 155.818C131.552 155.461 132.37 154.297 131.998 153.133C131.648 152.054 130.478 151.225 129.314 151.608C125.965 152.713 122.712 154.111 119.608 155.786C118.603 156.328 118.204 157.8 118.826 158.768C119.485 159.788 120.735 160.129 121.808 159.549V159.56Z" fill="#68461A"/>
</g>
<defs>
<clipPath id="clip0_172_369">
<rect width="260.366" height="411.92" fill="white"/>
</clipPath>
</defs>
</svg>
