<svg width="570" height="886" viewBox="0 0 570 886" fill="none" xmlns="http://www.w3.org/2000/svg">
<path d="M280.361 529.826C278.089 522.399 271.9 516.296 264.444 514.123C256.987 511.951 248.488 513.775 242.582 518.818C236.675 523.86 233.538 531.97 234.517 539.675C231.992 537.505 229.122 535.948 225.878 536.697C222.633 537.446 219.801 539.804 218.481 542.86C218.169 540.079 214.862 538.951 212.092 539.352C209.322 539.749 207.042 541.769 205.399 544.035C203.757 546.301 202.577 548.874 200.931 551.136C199.285 553.397 196.997 555.411 194.224 555.793C191.621 556.152 189.058 555.033 186.704 553.865C184.349 552.697 181.91 551.421 179.281 551.447C176.652 551.473 173.826 553.334 173.767 555.963C174.872 553.605 178.476 553.976 180.697 555.34C182.914 556.705 184.342 559.026 186.196 560.854C189.318 563.935 193.786 565.596 198.161 565.311C202.537 565.022 206.749 562.786 209.437 559.323C210.642 562.189 212.804 564.343 215.514 565.863C219.441 568.066 224.146 568.845 228.57 568.025C232.997 567.206 237.113 564.795 239.99 561.336C241.877 564.662 246.449 567.369 250.231 567.925C254.013 568.477 258.021 567.198 260.784 564.554C268.007 570.064 277.948 571.607 286.005 567.402C290.15 565.237 293.562 561.929 297.095 558.87C300.629 555.811 304.492 552.882 309.027 551.744C313.562 550.605 318.935 551.658 321.756 555.389C319.847 551.688 317.637 548.729 313.729 547.294C309.821 545.859 305.379 545.941 301.526 547.524C304.289 542.563 302.494 535.325 297.907 531.981C293.321 528.636 285.782 528.154 280.358 529.834L280.361 529.826Z" fill="white"/>
<path d="M187.034 469.732C185.703 465.379 182.073 461.798 177.701 460.526C173.33 459.25 168.346 460.322 164.883 463.277C161.42 466.232 159.581 470.986 160.155 475.506C158.676 474.234 156.993 473.322 155.09 473.759C153.188 474.197 151.527 475.58 150.752 477.371C150.571 475.739 148.631 475.079 147.007 475.313C145.383 475.546 144.048 476.729 143.084 478.057C142.12 479.384 141.431 480.893 140.463 482.221C139.499 483.548 138.156 484.727 136.529 484.95C135.001 485.161 133.499 484.505 132.12 483.819C130.741 483.133 129.309 482.388 127.767 482.402C126.224 482.417 124.571 483.507 124.534 485.05C125.183 483.667 127.296 483.886 128.598 484.686C129.899 485.487 130.733 486.848 131.82 487.92C133.648 489.725 136.269 490.701 138.835 490.534C141.401 490.363 143.87 489.054 145.446 487.022C146.151 488.702 147.419 489.966 149.009 490.856C151.312 492.147 154.071 492.603 156.666 492.124C159.262 491.646 161.676 490.23 163.363 488.201C164.468 490.152 167.148 491.739 169.366 492.065C171.583 492.391 173.934 491.639 175.554 490.089C179.789 493.318 185.617 494.223 190.341 491.757C192.774 490.489 194.772 488.55 196.845 486.755C198.918 484.961 201.183 483.244 203.842 482.577C206.5 481.909 209.652 482.525 211.306 484.712C210.186 482.543 208.892 480.808 206.6 479.966C204.309 479.125 201.706 479.173 199.448 480.103C201.068 477.196 200.015 472.951 197.327 470.989C194.639 469.028 190.219 468.746 187.038 469.729L187.034 469.732Z" fill="white"/>
<path d="M113.173 263.108L119.695 266.167C119.855 266.26 119.855 266.479 119.695 266.568L113.173 269.627C113.144 269.645 113.118 269.668 113.099 269.697L109.847 275.837C109.751 275.99 109.517 275.99 109.421 275.837L106.169 269.697C106.151 269.668 106.125 269.645 106.095 269.627L99.5727 266.568C99.4133 266.475 99.4133 266.256 99.5727 266.167L106.095 263.108C106.125 263.09 106.151 263.068 106.169 263.038L109.421 256.898C109.517 256.746 109.751 256.746 109.847 256.898L113.099 263.038C113.118 263.068 113.144 263.09 113.173 263.108Z" fill="white"/>
<path d="M392.265 75.1295L398.787 78.1886C398.947 78.2812 398.947 78.5 398.787 78.589L392.265 81.648C392.235 81.6666 392.209 81.6888 392.191 81.7185L388.939 87.8587C388.843 88.0108 388.609 88.0108 388.513 87.8587L385.261 81.7185C385.242 81.6888 385.216 81.6666 385.187 81.648L378.665 78.589C378.505 78.4963 378.505 78.2775 378.665 78.1886L385.187 75.1295C385.216 75.111 385.242 75.0888 385.261 75.0591L388.513 68.9188C388.609 68.7668 388.843 68.7668 388.939 68.9188L392.191 75.0591C392.209 75.0888 392.235 75.111 392.265 75.1295Z" fill="white"/>
<path d="M409.062 103.833L412.325 105.364C412.407 105.408 412.407 105.52 412.325 105.564L409.062 107.096C409.062 107.096 409.032 107.118 409.025 107.129L407.401 110.199C407.353 110.273 407.238 110.273 407.186 110.199L405.562 107.129C405.562 107.129 405.54 107.103 405.525 107.096L402.262 105.564C402.18 105.52 402.18 105.408 402.262 105.364L405.525 103.833C405.525 103.833 405.554 103.81 405.562 103.799L407.186 100.729C407.234 100.655 407.349 100.655 407.401 100.729L409.025 103.799C409.025 103.799 409.047 103.825 409.062 103.833Z" fill="white"/>
<path d="M123.106 13.5003L126.369 15.0317C126.451 15.0762 126.451 15.1874 126.369 15.2319L123.106 16.7633C123.106 16.7633 123.076 16.7855 123.069 16.7966L121.445 19.8668C121.397 19.9409 121.282 19.9409 121.23 19.8668L119.606 16.7966C119.606 16.7966 119.584 16.7707 119.569 16.7633L116.306 15.2319C116.224 15.1874 116.224 15.0762 116.306 15.0317L119.569 13.5003C119.569 13.5003 119.598 13.4781 119.606 13.4669L121.23 10.3968C121.278 10.3226 121.393 10.3226 121.445 10.3968L123.069 13.4669C123.069 13.4669 123.091 13.4929 123.106 13.5003Z" fill="white"/>
<path d="M399.344 47.8986H388.135C386.096 47.8986 384.446 46.2449 384.446 44.2092C384.446 42.1699 386.1 40.5199 388.135 40.5199H399.344C401.383 40.5199 403.033 42.1736 403.033 44.2092C403.033 46.2486 401.38 47.8986 399.344 47.8986Z" fill="#FFB846"/>
<path d="M514.174 34.6856C514.174 32.6462 512.52 30.9962 510.484 30.9962H423.253C421.213 30.9962 419.563 32.6499 419.563 34.6856C419.563 36.7249 421.217 38.3749 423.253 38.3749H428.077C430.116 38.3749 431.766 40.0286 431.766 42.0643C431.766 44.0999 430.112 45.7536 428.077 45.7536H410.223C408.184 45.7536 406.534 47.4073 406.534 49.443C406.534 51.4823 408.187 53.1323 410.223 53.1323H446.735C448.774 53.1323 450.424 54.786 450.424 56.8217C450.424 58.8573 448.77 60.511 446.735 60.511H438.473C436.434 60.511 434.784 62.1647 434.784 64.2004C434.784 66.236 436.438 67.8897 438.473 67.8897H494.17C496.209 67.8897 497.859 66.236 497.859 64.2004C497.859 62.1647 496.205 60.511 494.17 60.511H485.645C483.606 60.511 481.956 58.8573 481.956 56.8217C481.956 54.786 483.61 53.1323 485.645 53.1323H500.243C502.283 53.1323 503.933 51.4786 503.933 49.443C503.933 47.4036 502.279 45.7536 500.243 45.7536H495.171C493.131 45.7536 491.481 44.0999 491.481 42.0643C491.481 40.0286 493.135 38.3749 495.171 38.3749H510.488C512.527 38.3749 514.177 36.7212 514.177 34.6856H514.174ZM469.605 38.3749C471.644 38.3749 473.294 40.0286 473.294 42.0643C473.294 44.0999 471.641 45.7536 469.605 45.7536H453.631C451.592 45.7536 449.942 44.0999 449.942 42.0643C449.942 40.0286 451.596 38.3749 453.631 38.3749H469.605Z" fill="#FFB846"/>
<path d="M130.036 300.68C127.274 298.303 123.11 298.618 120.733 301.381L118.282 304.228L116.421 301.166C114.526 298.051 110.47 297.065 107.355 298.959C104.241 300.854 103.254 304.911 105.149 308.025L107.103 311.236L103.614 312.063C100.069 312.901 97.8741 316.457 98.712 320.002C99.55 323.546 103.106 325.742 106.651 324.904L110.307 324.04L110.014 327.614C109.717 331.244 112.416 334.429 116.05 334.729C119.68 335.026 122.865 332.323 123.166 328.693L123.473 324.948L126.781 326.331C130.144 327.736 134.007 326.149 135.413 322.79C136.818 319.427 135.231 315.563 131.872 314.158L128.405 312.708L130.741 309.99C133.118 307.228 132.802 303.064 130.04 300.687L130.036 300.68Z" fill="#FF4A46"/>
<path d="M112.865 304.451C112.383 303.657 111.345 303.405 110.551 303.887C109.758 304.369 109.506 305.407 109.988 306.201C110.347 306.79 111.011 307.08 111.653 306.994L115.346 313.064L116.499 312.363L112.806 306.294C113.18 305.763 113.225 305.04 112.869 304.451H112.865Z" fill="white"/>
<path d="M105.62 316.646C104.715 316.861 104.156 317.769 104.367 318.674C104.582 319.579 105.49 320.139 106.395 319.927C107.066 319.768 107.548 319.227 107.663 318.589L114.575 316.954L114.263 315.641L107.352 317.276C106.962 316.757 106.288 316.49 105.616 316.65L105.62 316.646Z" fill="white"/>
<path d="M114.978 327.302C114.9 328.229 115.594 329.041 116.521 329.119C117.448 329.197 118.26 328.504 118.337 327.577C118.393 326.887 118.026 326.264 117.455 325.956L118.037 318.874L116.695 318.763L116.113 325.845C115.497 326.056 115.037 326.613 114.978 327.302Z" fill="white"/>
<path d="M128.008 321.696C128.865 322.056 129.855 321.652 130.21 320.791C130.57 319.935 130.166 318.945 129.306 318.589C128.668 318.322 127.96 318.478 127.493 318.926L120.937 316.186L120.418 317.428L126.974 320.168C126.985 320.817 127.37 321.429 128.008 321.696Z" fill="white"/>
<path d="M126.699 307.573C127.307 306.868 127.226 305.804 126.521 305.196C125.817 304.588 124.753 304.669 124.145 305.374C123.696 305.897 123.622 306.62 123.904 307.202L119.272 312.59L120.296 313.468L124.927 308.081C125.546 308.27 126.251 308.092 126.699 307.569V307.573Z" fill="white"/>
<path d="M110.451 311.266C109.858 311.018 109.172 311.299 108.924 311.893C108.675 312.486 108.957 313.172 109.55 313.42C109.992 313.606 110.481 313.498 110.807 313.187L115.346 315.085L115.706 314.225L111.167 312.326C111.16 311.878 110.893 311.451 110.451 311.27V311.266Z" fill="white"/>
<path d="M111.356 321.047C110.937 321.537 110.992 322.271 111.478 322.693C111.967 323.112 112.702 323.057 113.124 322.571C113.436 322.208 113.484 321.711 113.291 321.303L116.498 317.573L115.79 316.965L112.583 320.695C112.153 320.561 111.667 320.687 111.356 321.051V321.047Z" fill="white"/>
<path d="M120.937 323.209C121.271 323.758 121.99 323.936 122.539 323.598C123.088 323.265 123.266 322.545 122.928 321.997C122.68 321.589 122.22 321.388 121.775 321.448L119.221 317.247L118.423 317.732L120.978 321.933C120.719 322.301 120.685 322.801 120.937 323.209Z" fill="white"/>
<path d="M125.954 314.762C126.58 314.614 126.97 313.984 126.821 313.357C126.673 312.73 126.043 312.341 125.416 312.489C124.953 312.601 124.619 312.975 124.537 313.416L119.75 314.547L119.966 315.456L124.752 314.325C125.023 314.684 125.487 314.87 125.954 314.759V314.762Z" fill="white"/>
<path d="M119.473 307.384C119.525 306.742 119.046 306.179 118.405 306.127C117.763 306.075 117.2 306.553 117.148 307.195C117.107 307.673 117.363 308.103 117.76 308.318L117.359 313.22L118.29 313.298L118.69 308.396C119.117 308.251 119.436 307.866 119.476 307.387L119.473 307.384Z" fill="white"/>
<path d="M121.983 312.886C123.444 315.289 122.68 318.422 120.277 319.883C117.874 321.344 114.741 320.58 113.28 318.177C111.819 315.775 112.583 312.641 114.986 311.181C117.389 309.72 120.522 310.483 121.983 312.886Z" fill="#FFB846"/>
<g style="mix-blend-mode:screen" opacity="0.6">
<path d="M113.914 316.905C114.018 317.287 114.181 317.665 114.448 317.958C114.715 318.251 115.112 318.448 115.505 318.411C116.154 318.351 116.592 317.728 116.866 317.135C117.192 316.423 117.418 315.667 117.537 314.896C117.63 314.295 117.648 313.653 117.37 313.116C116.669 311.759 115.175 312.059 114.508 313.157C113.825 314.28 113.558 315.626 113.911 316.909L113.914 316.905Z" fill="#666666"/>
</g>
<path d="M109.201 550.355C109.52 552.072 109.843 553.788 110.162 555.505C110.239 555.931 110.332 556.38 110.618 556.703C110.907 557.025 111.463 557.148 111.767 556.84C111.956 556.651 111.993 556.362 112.015 556.095C112.205 553.907 112.097 551.693 111.689 549.535C110.87 549.658 110.05 549.78 109.227 549.902" fill="#BA6116"/>
<path d="M108.664 550.503C108.949 552.03 109.231 553.554 109.517 555.082C109.639 555.742 109.709 556.465 110.151 557.006C110.514 557.451 111.129 557.689 111.689 557.518C112.335 557.325 112.513 556.691 112.572 556.094C112.646 555.353 112.668 554.6 112.661 553.855C112.65 552.357 112.498 550.859 112.223 549.387C112.164 549.068 111.815 548.957 111.537 548.997C110.718 549.12 109.898 549.242 109.075 549.365C108.779 549.409 108.612 549.784 108.686 550.05C108.775 550.369 109.072 550.484 109.372 550.44C110.191 550.317 111.011 550.195 111.834 550.073L111.148 549.683C111.37 550.877 111.5 552.082 111.537 553.295C111.556 553.903 111.552 554.511 111.522 555.115C111.508 555.42 111.489 555.724 111.463 556.024C111.452 556.139 111.463 556.398 111.341 556.465C111.337 556.465 111.152 556.435 111.074 556.372C110.881 556.224 110.818 555.924 110.766 555.705C110.629 555.119 110.54 554.515 110.429 553.925C110.199 552.687 109.965 551.445 109.735 550.206C109.606 549.502 108.534 549.802 108.664 550.503Z" fill="#68461C"/>
<path d="M109.49 555.119C108.178 552.249 104.455 550.759 101.526 551.927C101.652 553.146 101.848 554.507 102.813 555.264C103.135 555.516 103.521 555.679 103.91 555.816C105.671 556.443 107.937 556.491 109.094 555.023" fill="#6C8C44"/>
<path d="M109.972 554.837C108.522 551.752 104.559 550.158 101.377 551.389C101.166 551.47 100.943 551.671 100.969 551.926C101.069 552.902 101.192 553.914 101.685 554.782C102.234 555.746 103.205 556.217 104.24 556.509C106.005 557.006 108.233 556.951 109.486 555.419C109.935 554.871 109.153 554.077 108.7 554.633C107.718 555.831 106.027 555.835 104.644 555.467C103.854 555.26 103.068 554.963 102.645 554.222C102.252 553.536 102.163 552.701 102.082 551.93L101.674 552.468C104.429 551.4 107.755 552.727 109.012 555.404C109.316 556.053 110.276 555.486 109.972 554.845V554.837Z" fill="#68461C"/>
<path d="M110.684 555.727C108.634 556.628 106.998 558.389 105.886 560.332C104.774 562.275 104.488 564.822 105.671 566.725C106.635 568.278 108.445 569.183 110.265 569.368C112.086 569.554 113.921 569.098 115.616 568.412C117.74 567.555 119.783 566.269 120.996 564.322C122.208 562.375 122.397 559.68 121.003 557.863C119.349 555.705 115.642 554.633 112.972 555.145C112.972 555.145 111.225 555.486 110.688 555.723L110.684 555.727Z" fill="#F48720"/>
<path d="M110.262 555.008C108.53 555.786 107.125 557.106 106.005 558.619C104.878 560.143 104.092 561.912 104.07 563.836C104.048 565.76 104.823 567.488 106.291 568.649C107.759 569.809 109.724 570.343 111.626 570.228C113.699 570.106 115.742 569.39 117.567 568.423C119.209 567.551 120.722 566.339 121.712 564.744C122.702 563.15 123.017 561.359 122.672 559.605C122.327 557.851 121.215 556.595 119.788 555.705C118.208 554.715 116.272 554.199 114.415 554.188C113.736 554.188 113.069 554.273 112.409 554.414C111.749 554.555 111.074 554.67 110.458 554.922C110.043 555.097 109.747 555.475 109.876 555.949C109.984 556.342 110.484 556.706 110.903 556.531C111.712 556.194 112.68 555.998 113.555 555.897C114.912 555.745 116.306 555.983 117.581 556.461C118.772 556.906 119.98 557.666 120.618 558.797C121.319 560.032 121.256 561.556 120.789 562.857C119.713 565.849 116.235 567.562 113.347 568.282C111.741 568.682 109.973 568.742 108.441 568.03C107.069 567.392 106.083 566.265 105.809 564.763C105.49 563.013 106.183 561.307 107.151 559.883C108.119 558.46 109.48 557.18 111.107 556.45C111.519 556.265 111.615 555.668 111.408 555.308C111.159 554.885 110.677 554.822 110.266 555.008H110.262Z" fill="#68461C"/>
<path d="M107.603 563.217L107.655 563.395C107.673 563.469 107.707 563.532 107.755 563.584C107.796 563.643 107.848 563.692 107.911 563.729C107.974 563.769 108.044 563.792 108.118 563.795C108.193 563.81 108.267 563.81 108.341 563.784L108.474 563.729C108.56 563.68 108.623 563.614 108.675 563.528L108.73 563.395C108.756 563.295 108.756 563.198 108.73 563.098L108.678 562.92C108.66 562.846 108.626 562.783 108.578 562.731C108.537 562.672 108.485 562.624 108.422 562.587C108.359 562.546 108.289 562.524 108.215 562.52C108.141 562.505 108.066 562.505 107.992 562.531L107.859 562.587C107.774 562.635 107.711 562.702 107.659 562.787L107.603 562.92C107.577 563.02 107.577 563.117 107.603 563.217Z" fill="#68461C"/>
<path d="M108.063 566.187L108.115 566.365C108.133 566.44 108.167 566.503 108.215 566.555C108.256 566.614 108.308 566.662 108.371 566.699C108.434 566.74 108.504 566.762 108.578 566.766C108.652 566.781 108.727 566.781 108.801 566.755L108.934 566.699C109.02 566.651 109.083 566.584 109.134 566.499L109.19 566.365C109.216 566.265 109.216 566.169 109.19 566.069L109.138 565.891C109.12 565.817 109.086 565.754 109.038 565.702C108.997 565.642 108.945 565.594 108.882 565.557C108.819 565.516 108.749 565.494 108.675 565.49C108.601 565.476 108.526 565.476 108.452 565.501L108.319 565.557C108.233 565.605 108.17 565.672 108.119 565.757L108.063 565.891C108.037 565.991 108.037 566.087 108.063 566.187Z" fill="#68461C"/>
<path d="M109.446 564.24L109.498 564.418C109.516 564.493 109.55 564.556 109.598 564.608C109.639 564.667 109.69 564.715 109.753 564.752C109.817 564.793 109.887 564.815 109.961 564.819C110.035 564.834 110.109 564.834 110.184 564.808L110.317 564.752C110.402 564.704 110.465 564.637 110.517 564.552L110.573 564.418C110.599 564.318 110.599 564.222 110.573 564.122L110.521 563.944C110.502 563.87 110.469 563.807 110.421 563.755C110.38 563.695 110.328 563.647 110.265 563.61C110.202 563.569 110.132 563.547 110.058 563.543C109.983 563.529 109.909 563.529 109.835 563.554L109.702 563.61C109.616 563.658 109.553 563.725 109.501 563.81L109.446 563.944C109.42 564.044 109.42 564.14 109.446 564.24Z" fill="#68461C"/>
<path d="M123.781 553.951C124.296 555.779 124.811 557.611 125.327 559.439C125.453 559.891 125.583 560.373 125.457 560.825C125.331 561.278 124.849 561.667 124.404 561.515C124.129 561.419 123.951 561.155 123.803 560.907C122.561 558.864 121.6 556.65 120.959 554.351C121.819 554.077 122.676 553.799 123.536 553.525" fill="#BA6116"/>
<path d="M123.243 554.099C123.618 555.419 123.988 556.743 124.363 558.063C124.545 558.704 124.763 559.35 124.901 560.002C124.956 560.266 125.023 560.614 124.841 560.848C124.726 560.992 124.63 561.018 124.489 560.918C124.307 560.788 124.174 560.447 124.063 560.262C123.907 559.995 123.755 559.724 123.607 559.45C123.314 558.901 123.036 558.345 122.783 557.778C122.264 556.621 121.842 555.427 121.497 554.207L121.107 554.893C121.968 554.618 122.824 554.34 123.684 554.066C124.363 553.847 124.074 552.772 123.388 552.994C122.528 553.269 121.671 553.547 120.811 553.821C120.525 553.914 120.336 554.207 120.421 554.507C121.07 556.806 122.016 559.027 123.247 561.074C123.503 561.5 123.799 561.938 124.307 562.071C124.815 562.205 125.36 561.96 125.69 561.556C126.473 560.588 125.835 559.19 125.542 558.152C125.134 556.702 124.726 555.256 124.315 553.806C124.122 553.117 123.047 553.41 123.243 554.103V554.099Z" fill="#68461C"/>
<path d="M125.791 558.738C125.69 555.305 128.601 552.056 132.024 551.782C132.491 553.032 132.954 554.455 132.38 555.661C132.187 556.065 131.89 556.41 131.579 556.728C130.162 558.189 127.975 559.328 126.139 558.453" fill="#6C8C44"/>
<path d="M126.346 558.738C126.279 555.601 128.871 552.62 132.023 552.338L131.485 551.93C131.796 552.764 132.123 553.647 132.086 554.552C132.048 555.456 131.414 556.161 130.751 556.75C129.635 557.744 127.91 558.656 126.416 557.974C126.142 557.848 125.819 557.896 125.656 558.174C125.515 558.411 125.582 558.808 125.856 558.934C127.825 559.832 129.924 558.934 131.459 557.607C132.293 556.887 133.027 556.02 133.168 554.893C133.309 553.765 132.946 552.672 132.56 551.637C132.479 551.422 132.278 551.207 132.023 551.229C128.281 551.559 125.155 554.959 125.233 558.741C125.248 559.457 126.361 559.457 126.346 558.741V558.738Z" fill="#68461C"/>
<path d="M124.923 559.906C127.355 559.798 129.802 560.725 131.827 562.086C133.851 563.447 135.353 565.79 135.119 568.215C134.926 570.199 133.599 571.953 131.912 573.009C130.225 574.066 128.215 574.507 126.231 574.659C123.747 574.849 121.129 574.578 119.012 573.265C116.891 571.953 115.408 569.413 115.89 566.969C116.461 564.066 119.565 561.233 122.416 560.447C122.416 560.447 124.285 559.939 124.923 559.91V559.906Z" fill="#F48720"/>
<path d="M124.923 560.74C126.766 560.673 128.557 561.192 130.173 562.06C131.656 562.857 132.951 563.895 133.733 565.416C134.423 566.751 134.515 568.338 133.848 569.702C133.121 571.189 131.816 572.268 130.311 572.913C128.649 573.625 126.777 573.862 124.982 573.877C123.188 573.892 121.404 573.629 119.836 572.776C118.468 572.031 117.329 570.803 116.858 569.302C116.387 567.8 116.747 566.391 117.563 565.104C118.531 563.58 120.014 562.342 121.653 561.6C122.142 561.378 122.657 561.241 123.177 561.107C123.51 561.022 123.844 560.94 124.178 560.87C124.33 560.836 124.478 560.807 124.63 560.777C124.704 560.762 124.778 560.747 124.856 560.74C124.723 560.759 124.875 560.74 124.927 560.74C125.995 560.673 126.002 559.001 124.927 559.072C123.74 559.149 122.431 559.491 121.323 559.939C119.558 560.655 117.971 561.852 116.788 563.343C115.605 564.834 114.774 566.658 115.012 568.597C115.249 570.536 116.28 572.194 117.741 573.373C119.398 574.711 121.475 575.319 123.57 575.494C125.627 575.668 127.819 575.475 129.795 574.867C131.771 574.259 133.551 573.139 134.756 571.437C135.858 569.88 136.243 567.919 135.757 566.072C135.201 563.955 133.666 562.249 131.846 561.107C129.788 559.817 127.374 558.986 124.923 559.075C123.851 559.112 123.848 560.781 124.923 560.744V560.74Z" fill="#68461C"/>
<path d="M130.406 565.987L130.443 566.187C130.462 566.261 130.495 566.324 130.543 566.376C130.584 566.436 130.636 566.484 130.699 566.521C130.762 566.562 130.833 566.584 130.907 566.588C130.981 566.603 131.055 566.603 131.129 566.577L131.263 566.521C131.348 566.473 131.411 566.406 131.463 566.321L131.519 566.187C131.545 566.087 131.545 565.991 131.519 565.891L131.481 565.69C131.463 565.616 131.43 565.553 131.381 565.501C131.341 565.442 131.289 565.394 131.226 565.357C131.163 565.316 131.092 565.294 131.018 565.29C130.944 565.275 130.87 565.275 130.796 565.301L130.662 565.357C130.577 565.405 130.514 565.472 130.462 565.557L130.406 565.69C130.38 565.791 130.38 565.887 130.406 565.987Z" fill="#68461C"/>
<path d="M131.389 569.109L131.426 569.309C131.445 569.383 131.478 569.446 131.526 569.498C131.567 569.558 131.619 569.606 131.682 569.643C131.745 569.684 131.815 569.706 131.89 569.71C131.964 569.724 132.038 569.724 132.112 569.698L132.246 569.643C132.331 569.595 132.394 569.528 132.446 569.443L132.501 569.309C132.527 569.209 132.527 569.113 132.501 569.012L132.464 568.812C132.446 568.738 132.412 568.675 132.364 568.623C132.323 568.564 132.272 568.516 132.209 568.479C132.146 568.438 132.075 568.415 132.001 568.412C131.927 568.397 131.853 568.397 131.778 568.423L131.645 568.479C131.56 568.527 131.497 568.593 131.445 568.679L131.389 568.812C131.363 568.912 131.363 569.009 131.389 569.109Z" fill="#68461C"/>
<path d="M129.101 567.878L129.139 568.078C129.157 568.152 129.19 568.215 129.239 568.267C129.279 568.326 129.331 568.374 129.394 568.412C129.457 568.452 129.528 568.475 129.602 568.478C129.676 568.493 129.75 568.493 129.825 568.467L129.958 568.412C130.043 568.363 130.106 568.297 130.158 568.211L130.214 568.078C130.24 567.978 130.24 567.881 130.214 567.781L130.177 567.581C130.158 567.507 130.125 567.444 130.077 567.392C130.036 567.333 129.984 567.284 129.921 567.247C129.858 567.206 129.787 567.184 129.713 567.181C129.639 567.166 129.565 567.166 129.491 567.192L129.357 567.247C129.272 567.295 129.209 567.362 129.157 567.448L129.101 567.581C129.076 567.681 129.076 567.778 129.101 567.878Z" fill="#68461C"/>
<path d="M569.154 792.819C568.159 774.231 557.822 756.625 542.246 746.432C531.341 739.295 516.795 738.087 504.864 743.327C492.928 748.567 483.974 760.087 481.844 772.944C474.801 769.165 464.817 770.938 457.269 773.563C449.721 776.188 443.372 782.076 440.192 789.406C432.268 781.328 421.863 776.029 410.962 774.137C411.606 768.952 411.938 763.677 411.938 758.318C411.938 688.001 354.933 630.996 284.615 630.996C214.298 630.996 157.293 688.001 157.293 758.318C157.293 763.677 157.629 768.957 158.268 774.137C147.368 776.034 136.962 781.328 129.038 789.406C125.858 782.076 119.509 776.188 111.961 773.563C104.413 770.938 94.4239 769.165 87.3862 772.944C85.2565 760.087 76.2972 748.562 64.3663 743.327C52.4304 738.087 37.8895 739.295 26.9838 746.432C11.4077 756.62 1.06663 774.231 0.0760979 792.819C-0.919382 811.406 7.94584 829.637 21.1595 842.741C34.3731 855.846 51.5786 864.295 69.2892 870.02C112.947 884.13 161.517 882.461 204.105 865.39C206.428 864.459 208.78 863.418 211.088 862.269C231.855 876.989 257.227 885.641 284.62 885.641C312.013 885.641 337.381 876.989 358.152 862.269C360.465 863.418 362.812 864.459 365.135 865.39C407.718 882.461 456.293 884.13 499.951 870.02C517.662 864.295 534.867 855.846 548.081 842.741C561.294 829.637 570.159 811.401 569.164 792.819H569.154Z" fill="#FFE2C9"/>
<path d="M492.57 725.006C490.381 717.848 484.412 711.958 477.224 709.867C470.035 707.77 461.841 709.532 456.146 714.391C450.451 719.25 447.427 727.067 448.372 734.499C445.94 732.408 443.172 730.908 440.044 731.627C436.916 732.347 434.185 734.621 432.91 737.566C432.612 734.883 429.423 733.798 426.752 734.182C424.082 734.566 421.887 736.511 420.302 738.694C418.716 740.876 417.582 743.358 415.991 745.541C414.406 747.723 412.199 749.662 409.528 750.028C407.016 750.376 404.547 749.296 402.279 748.168C400.011 747.041 397.657 745.815 395.121 745.839C392.584 745.864 389.865 747.656 389.804 750.193C390.871 747.919 394.347 748.278 396.487 749.595C398.627 750.912 399.998 753.15 401.785 754.912C404.791 757.881 409.101 759.485 413.32 759.21C417.54 758.93 421.6 756.778 424.192 753.436C425.35 756.198 427.435 758.277 430.051 759.741C433.837 761.862 438.373 762.612 442.641 761.826C446.909 761.039 450.878 758.71 453.652 755.375C455.469 758.582 459.877 761.192 463.524 761.728C467.17 762.265 471.035 761.027 473.699 758.479C480.662 763.789 490.247 765.277 498.014 761.222C502.014 759.137 505.3 755.948 508.709 752.997C512.117 750.046 515.842 747.223 520.214 746.126C524.585 745.028 529.768 746.041 532.487 749.638C530.646 746.071 528.518 743.218 524.75 741.834C520.982 740.45 516.702 740.529 512.989 742.059C515.653 737.279 513.922 730.298 509.501 727.073C505.081 723.847 497.813 723.384 492.582 725L492.57 725.006Z" fill="white"/>
<path d="M130.299 598.006C128.11 590.848 122.141 584.958 114.953 582.867C107.765 580.77 99.5702 582.532 93.8756 587.391C88.181 592.25 85.1568 600.067 86.1019 607.499C83.6692 605.408 80.9011 603.908 77.7733 604.627C74.6455 605.347 71.914 607.621 70.6398 610.566C70.341 607.883 67.1523 606.798 64.4818 607.182C61.8113 607.566 59.6163 609.511 58.0311 611.694C56.4459 613.876 55.3118 616.358 53.7205 618.541C52.1353 620.723 49.9281 622.662 47.2576 623.028C44.7457 623.376 42.2763 622.296 40.0082 621.168C37.7401 620.041 35.3867 618.815 32.8503 618.839C30.314 618.864 27.5947 620.656 27.5337 623.193C28.6007 620.919 32.076 621.278 34.2161 622.595C36.3561 623.912 37.728 626.15 39.5144 627.912C42.5202 630.881 46.8308 632.485 51.05 632.21C55.2691 631.93 59.3298 629.778 61.921 626.436C63.0794 629.198 65.1646 631.277 67.7803 632.741C71.5665 634.862 76.1027 635.612 80.3707 634.826C84.6386 634.039 88.6078 631.71 91.3819 628.375C93.1988 631.582 97.607 634.192 101.253 634.728C104.899 635.265 108.765 634.027 111.429 631.479C118.392 636.789 127.976 638.277 135.744 634.222C139.744 632.137 143.03 628.948 146.438 625.997C149.846 623.046 153.572 620.223 157.943 619.126C162.315 618.028 167.497 619.041 170.217 622.638C168.375 619.071 166.247 616.218 162.48 614.834C158.712 613.45 154.431 613.529 150.718 615.059C153.383 610.279 151.651 603.298 147.231 600.073C142.81 596.847 135.543 596.384 130.312 598L130.299 598.006Z" fill="white"/>
<path d="M206.66 689.696C206.66 687.098 204.554 684.996 201.96 684.996H90.8325C88.2345 684.996 86.1325 687.103 86.1325 689.696C86.1325 692.294 88.2392 694.396 90.8325 694.396H96.9779C99.5759 694.396 101.678 696.503 101.678 699.096C101.678 701.689 99.5712 703.796 96.9779 703.796H74.2337C71.6357 703.796 69.5337 705.903 69.5337 708.496C69.5337 711.094 71.6404 713.196 74.2337 713.196H120.747C123.345 713.196 125.447 715.303 125.447 717.896C125.447 720.489 123.34 722.596 120.747 722.596H110.223C107.625 722.596 105.523 724.703 105.523 727.296C105.523 729.889 107.63 731.996 110.223 731.996H181.176C183.774 731.996 185.876 729.889 185.876 727.296C185.876 724.703 183.77 722.596 181.176 722.596H170.317C167.719 722.596 165.617 720.489 165.617 717.896C165.617 715.303 167.724 713.196 170.317 713.196H188.914C191.512 713.196 193.614 711.089 193.614 708.496C193.614 705.898 191.507 703.796 188.914 703.796H182.452C179.854 703.796 177.752 701.689 177.752 699.096C177.752 696.503 179.859 694.396 182.452 694.396H201.965C204.563 694.396 206.665 692.289 206.665 689.696H206.66ZM149.882 694.396C152.48 694.396 154.582 696.503 154.582 699.096C154.582 701.689 152.476 703.796 149.882 703.796H129.533C126.935 703.796 124.833 701.689 124.833 699.096C124.833 696.503 126.94 694.396 129.533 694.396H149.882Z" fill="#FFB846"/>
<path d="M176.66 58.6963C176.66 56.0983 174.554 53.9962 171.96 53.9962H60.8325C58.2345 53.9962 56.1325 56.103 56.1325 58.6963C56.1325 61.2942 58.2392 63.3962 60.8325 63.3962H66.9779C69.5759 63.3962 71.6779 65.5029 71.6779 68.0962C71.6779 70.6895 69.5712 72.7962 66.9779 72.7962H44.2337C41.6357 72.7962 39.5337 74.9029 39.5337 77.4962C39.5337 80.0942 41.6404 82.1963 44.2337 82.1963H90.7472C93.3451 82.1963 95.4472 84.303 95.4472 86.8962C95.4472 89.4895 93.3404 91.5962 90.7472 91.5962H80.2229C77.6249 91.5962 75.5229 93.703 75.5229 96.2962C75.5229 98.8895 77.6297 100.996 80.2229 100.996H151.176C153.774 100.996 155.876 98.8895 155.876 96.2962C155.876 93.703 153.77 91.5962 151.176 91.5962H140.317C137.719 91.5962 135.617 89.4895 135.617 86.8962C135.617 84.303 137.724 82.1963 140.317 82.1963H158.914C161.512 82.1963 163.614 80.0895 163.614 77.4962C163.614 74.8982 161.507 72.7962 158.914 72.7962H152.452C149.854 72.7962 147.752 70.6895 147.752 68.0962C147.752 65.5029 149.859 63.3962 152.452 63.3962H171.965C174.563 63.3962 176.665 61.2895 176.665 58.6963H176.66ZM119.882 63.3962C122.48 63.3962 124.582 65.5029 124.582 68.0962C124.582 70.6895 122.476 72.7962 119.882 72.7962H99.5331C96.9351 72.7962 94.8331 70.6895 94.8331 68.0962C94.8331 65.5029 96.9398 63.3962 99.5331 63.3962H119.882Z" fill="#FFB846"/>
<path d="M396.534 626.973C396.534 630.101 399.07 632.638 402.198 632.638H536.058C539.186 632.638 541.722 630.101 541.722 626.973C541.722 623.846 539.186 621.309 536.058 621.309H528.656C525.529 621.309 522.992 618.773 522.992 615.645C522.992 612.517 525.529 609.981 528.656 609.981H556.051C559.178 609.981 561.715 607.445 561.715 604.317C561.715 601.189 559.178 598.653 556.051 598.653H500.025C496.897 598.653 494.361 596.116 494.361 592.989C494.361 589.861 496.897 587.324 500.025 587.324H512.701C515.828 587.324 518.365 584.788 518.365 581.66C518.365 578.532 515.828 575.996 512.701 575.996H427.238C424.111 575.996 421.574 578.532 421.574 581.66C421.574 584.788 424.111 587.324 427.238 587.324H440.323C443.45 587.324 445.987 589.861 445.987 592.989C445.987 596.116 443.45 598.653 440.323 598.653H417.922C414.794 598.653 412.258 601.189 412.258 604.317C412.258 607.445 414.794 609.981 417.922 609.981H425.708C428.836 609.981 431.372 612.517 431.372 615.645C431.372 618.773 428.836 621.309 425.708 621.309H402.204C399.076 621.309 396.54 623.846 396.54 626.973H396.534ZM464.924 621.309C461.796 621.309 459.26 618.773 459.26 615.645C459.26 612.517 461.796 609.981 464.924 609.981H489.434C492.562 609.981 495.098 612.517 495.098 615.645C495.098 618.773 492.562 621.309 489.434 621.309H464.924Z" fill="#FFB846"/>
<path d="M457.977 3.15912L461.24 4.69048C461.321 4.73497 461.321 4.84621 461.24 4.89071L457.977 6.42206C457.977 6.42206 457.947 6.44431 457.94 6.45544L456.316 9.52557C456.268 9.59973 456.153 9.59973 456.104 9.52557L454.48 6.45544C454.48 6.45544 454.458 6.42948 454.443 6.42206L451.18 4.89071C451.099 4.84621 451.099 4.73497 451.18 4.69048L454.443 3.15912C454.443 3.15912 454.473 3.13687 454.48 3.12575L456.104 0.0556183C456.153 -0.0185394 456.268 -0.0185394 456.316 0.0556183L457.94 3.12575C457.94 3.12575 457.962 3.15171 457.977 3.15912Z" fill="white"/>
<path d="M513.281 732.017H530.48C533.608 732.017 536.145 734.553 536.145 737.681C536.145 740.809 533.608 743.345 530.48 743.345H513.281C510.153 743.345 507.616 740.809 507.616 737.681C507.616 734.553 510.153 732.017 513.281 732.017Z" fill="#FFB846"/>
<path d="M536.087 466.347H546.547C548.449 466.347 549.991 467.889 549.991 469.791C549.991 471.694 548.449 473.236 546.547 473.236H536.087C534.185 473.236 532.642 471.694 532.642 469.791C532.642 467.889 534.185 466.347 536.087 466.347Z" fill="#FFB846"/>
<path d="M14.9757 702.619H3.76674C1.7274 702.619 0.0773926 700.965 0.0773926 698.93C0.0773926 696.89 1.73111 695.24 3.76674 695.24H14.9757C17.015 695.24 18.665 696.894 18.665 698.93C18.665 700.969 17.0113 702.619 14.9757 702.619Z" fill="#FFB846"/>
<rect y="796" width="569" height="90" fill="#FFE2C9"/>
</svg>
