<svg width="265" height="115" viewBox="0 0 265 115" fill="none" xmlns="http://www.w3.org/2000/svg">
<path d="M250.206 13.3754H23.7902V101.619H250.206V13.3754Z" fill="#B53416"/>
<g style="mix-blend-mode:multiply" opacity="0.6">
<path d="M246.048 13.3754L231.865 101.619H250.211L246.048 13.3754Z" fill="#DB8686"/>
</g>
<g style="mix-blend-mode:multiply" opacity="0.6">
<path d="M25.7192 13.3754L36.6716 101.619H22.5043L25.7192 13.3754Z" fill="#DB8686"/>
</g>
<path d="M250.211 115C253.138 115 255.513 112.622 255.513 109.692V5.30761C255.513 2.37833 253.138 0 250.211 0C247.285 0 244.91 2.37833 244.91 5.30761V109.692C244.91 112.622 247.285 115 250.211 115Z" fill="#4F1608"/>
<path d="M237.995 105.787H262.423V9.21337H237.995V105.787Z" fill="#FF603B"/>
<g style="mix-blend-mode:multiply" opacity="0.6">
<path d="M255.295 17.532C258.543 22.3214 260.036 28.1308 260.466 33.9021C260.902 39.6734 260.33 45.4719 259.758 51.2323C258.973 59.1746 258.189 67.1169 257.404 75.0592C256.663 82.5324 255.715 90.5184 250.838 96.2242C247.525 100.097 242.91 102.328 237.995 103.921V105.792H262.423V9.21326H244.615C248.942 10.637 252.718 13.7299 255.295 17.532Z" fill="#DB8686"/>
</g>
<path d="M265.005 6.83496H235.418V9.21329H265.005V6.83496Z" fill="#FFBC36"/>
<path d="M265.005 105.787H235.418V108.165H265.005V105.787Z" fill="#FFBC36"/>
<path d="M14.794 115C17.7201 115 20.0958 112.622 20.0958 109.692V5.30761C20.0958 2.37833 17.7201 0 14.794 0C11.8679 0 9.49213 2.37833 9.49213 5.30761V109.692C9.49213 112.622 11.8679 115 14.794 115Z" fill="#4F1608"/>
<path d="M2.5828 105.787H27.0106L27.0106 9.21337H2.5828L2.5828 105.787Z" fill="#FF603B"/>
<g style="mix-blend-mode:multiply" opacity="0.6">
<path d="M19.8779 17.532C23.1255 22.3214 24.6185 28.1308 25.049 33.9021C25.4794 39.6734 24.9127 45.4719 24.3406 51.2323C23.5559 59.1746 22.7713 67.1169 21.9866 75.0592C21.2456 82.5324 20.2975 90.5184 15.4206 96.2242C12.1077 100.097 7.49237 102.328 2.57739 103.921V105.792H27.0052V9.21326H9.1979C13.5244 10.637 17.3005 13.7299 19.8779 17.532Z" fill="#DB8686"/>
</g>
<path d="M29.5879 6.83496H0V9.21329H29.5879V6.83496Z" fill="#FFBC36"/>
<path d="M29.5879 105.787H0V108.165H29.5879V105.787Z" fill="#FFBC36"/>
<path d="M74.0788 64.8859C74.3077 65.8077 74.6401 66.6533 75.1032 67.4497C76.0786 67.4497 77.0485 67.4224 78.0729 67.4006L78.3781 70.7062H77.4027C76.994 71.6827 76.6616 72.6318 76.4055 73.6028H77.8659L78.171 77.0121C76.787 77.0394 75.4574 77.0612 74.1769 77.0612C74.226 77.5739 74.3077 78.0376 74.4058 78.474C75.4574 78.474 76.5091 78.4467 77.5825 78.4249L77.8659 81.7306C76.8415 81.7578 75.8661 81.7797 74.9452 81.7797C74.9452 82.036 74.9943 82.2924 75.076 82.5488C75.6372 82.7015 76.2039 82.8543 76.7161 82.9852C77.2283 83.1379 77.7133 83.2907 78.1765 83.4216L77.3809 86.2145C77.0213 86.1108 76.7161 86.0345 76.4055 85.9581C76.1004 85.8545 75.8443 85.7781 75.5882 85.729C75.6372 86.3181 75.7408 86.9073 75.8715 87.5237L72.3624 87.9328C72.2589 87.5237 72.1826 87.1145 72.1335 86.7272C72.0573 86.3181 72.0028 85.9308 71.9537 85.549C71.2617 86.2418 70.5969 86.9345 69.9812 87.6273L67.6763 85.5217C68.2375 84.9053 68.8315 84.2889 69.3927 83.678C69.954 83.0888 70.5479 82.5215 71.1091 81.9597C69.9812 82.0633 68.9077 82.1397 67.8833 82.2161L67.5782 78.9104C68.6516 78.834 69.7578 78.7577 70.8585 78.654C70.7549 78.1903 70.6787 77.7321 70.6296 77.2194C69.6052 77.2957 68.6081 77.3721 67.6817 77.4267L67.3766 74.0174C67.6327 74.0174 67.916 73.9901 68.2212 73.9683C68.5045 73.9683 68.7824 73.941 69.093 73.8919C68.8369 73.0191 68.6571 72.0972 68.5318 71.1208C68.2266 71.1699 67.9433 71.1972 67.6872 71.1972L67.382 67.8915C68.6135 67.7879 69.8668 67.7115 71.1473 67.6079C70.9402 67.1987 70.7876 66.7623 70.6841 66.2987L74.0897 64.8859H74.0788ZM72.3896 73.7064H72.7765C72.9073 73.7064 73.0326 73.7064 73.1852 73.6792C73.4413 72.7027 73.7464 71.7318 74.1061 70.7826C73.2615 70.8317 72.4659 70.859 71.7467 70.8862C71.7957 71.3717 71.8992 71.8354 72.0028 72.2991C72.1063 72.7845 72.2316 73.2482 72.3896 73.7064ZM88.5785 65.3986L89.7828 68.9116C87.5269 69.4734 85.1947 70.0407 82.7917 70.6299C82.7427 71.0935 82.6882 71.5299 82.661 71.9609C82.6119 72.4245 82.5847 72.8609 82.5847 73.27C83.7617 73.2209 84.9441 73.1391 86.1211 73.09C87.298 73.0627 88.4805 73.0409 89.6847 73.0137L90.0934 76.603C89.6847 76.6302 89.276 76.6302 88.8891 76.6302H87.734C87.9901 79.9141 88.3224 83.3998 88.6821 87.12L84.9931 87.5291C84.5844 83.5798 84.2739 79.9905 84.0178 76.783C83.7126 76.8321 83.402 76.8593 83.1187 76.8593C82.8353 76.8866 82.5792 76.9084 82.3231 76.9084C82.0943 80.1923 81.9635 83.4979 81.9635 86.8309L78.3781 86.4218C78.3781 80.5741 78.6832 74.9829 79.2499 69.648L78.6887 67.8042C80.4051 67.3406 82.0943 66.9042 83.7344 66.4951C85.3745 66.1078 86.9874 65.7532 88.5785 65.3932V65.3986Z" fill="white"/>
<path d="M97.0844 64.6787L101.286 65.6006C101.078 66.0097 100.899 66.4188 100.746 66.8334C103.204 66.9588 105.612 67.0897 108.02 67.2207C110.402 67.3734 112.761 67.5534 115.093 67.7061L114.706 71.8082C112.581 71.7046 110.532 71.5791 108.582 71.4209C108.582 71.7264 108.609 72.01 108.631 72.2664C108.631 72.5501 108.658 72.8283 108.707 73.0847C110.244 73.0356 111.808 73.0083 113.393 73.0083L113.802 76.8049C112.162 76.8049 110.576 76.8322 109.012 76.8813C109.039 77.4431 109.088 78.0104 109.143 78.5505C109.192 79.1123 109.246 79.6523 109.296 80.1924C111.344 80.1433 113.448 80.116 115.6 80.116L116.009 84.1144C114.935 84.1417 113.856 84.1635 112.783 84.1635C111.709 84.1908 110.658 84.2126 109.633 84.2126C109.661 84.7745 109.682 85.3418 109.737 85.8818C109.786 86.4219 109.84 86.9564 109.889 87.5238L105.383 88.0365C105.334 87.3983 105.28 86.7819 105.231 86.1655C105.182 85.5764 105.127 84.9872 105.078 84.3708C103.209 84.4745 101.362 84.5781 99.5201 84.6763C97.6783 84.829 95.8311 84.96 93.9894 85.1127L93.6025 81.1143C94.5778 81.0379 95.6022 80.9615 96.6485 80.8579C96.6975 78.4195 97.0081 76.1121 97.5421 73.9084L94.289 73.2156C94.8503 70.2427 95.7984 67.3952 97.0789 64.6732L97.0844 64.6787ZM104.206 73.2974C104.157 72.9374 104.13 72.5774 104.103 72.1955C104.054 71.8355 104.026 71.4755 104.026 71.1209C103.209 71.0936 102.386 71.0445 101.618 70.9954C100.822 70.9463 100.054 70.8918 99.313 70.8427C99.0569 71.7155 98.828 72.5883 98.6755 73.4065L100.517 73.5865C101.694 73.4829 102.926 73.4065 104.206 73.3029V73.2974ZM104.746 80.3506C104.642 79.276 104.539 78.1959 104.49 77.1213C103.874 77.1704 103.285 77.2249 102.697 77.274C102.108 77.3231 101.542 77.3777 100.98 77.4049C100.828 78.4795 100.724 79.5323 100.675 80.5851C102.005 80.536 103.367 80.4542 104.746 80.356V80.3506Z" fill="white"/>
<path d="M139.913 69.2935L140.426 73.6029C138.682 73.6029 136.965 73.6302 135.276 73.652C133.56 73.7011 131.843 73.7829 130.154 73.832C129.435 75.4739 128.77 77.0395 128.154 78.5777C131.947 80.116 136.148 81.1688 140.807 81.7307L139.81 86.22C137.2 85.9146 134.764 85.4782 132.563 84.9109C130.361 84.3436 128.334 83.6562 126.52 82.8053C126.16 83.6508 125.855 84.4745 125.544 85.2927C125.239 86.1109 124.956 86.9074 124.7 87.731L120.112 86.1164C120.984 83.9617 121.855 81.8834 122.673 79.8869C123.49 77.885 124.313 75.9648 125.081 74.0938C123.239 74.2466 121.392 74.3775 119.6 74.5029L119.115 70.1936C121.627 69.9863 124.237 69.7845 126.928 69.6317C127.234 68.8899 127.517 68.1425 127.828 67.4279C128.138 66.7134 128.416 66.0151 128.727 65.3005L133.315 66.8934C133.086 67.357 132.879 67.7661 132.677 68.1753C132.47 68.6117 132.29 69.0208 132.138 69.4299C134.65 69.3808 137.26 69.3262 139.924 69.299L139.913 69.2935Z" fill="white"/>
<path d="M151.928 70.7062L152.212 73.45C152.419 72.4736 152.675 71.4754 153.007 70.499C153.34 69.5225 153.748 68.5734 154.239 67.6024L156.516 68.1424C156.925 67.9897 157.334 67.8588 157.748 67.7551C157.797 67.2915 157.873 66.806 157.955 66.3205C158.031 65.8568 158.135 65.3713 158.238 64.8859L162.031 65.295C161.927 65.6823 161.851 66.0368 161.802 66.3969C161.753 66.7842 161.698 67.1387 161.671 67.4988C162.439 67.6024 163.001 67.7551 163.36 67.9079C164.336 68.2679 165.153 69.037 165.818 70.2426C166.177 70.8317 166.483 71.7045 166.69 72.8336C166.897 73.9901 166.995 75.4247 167.049 77.1157C167.049 78.7304 166.918 80.1159 166.717 81.2451C166.488 82.4015 166.156 83.3234 165.741 83.9889C164.357 86.0672 162.309 87.12 159.541 87.12C156.772 87.12 154.773 86.3781 153.519 84.9162C153.007 84.3271 152.626 83.607 152.342 82.7615C152.059 81.9433 151.879 81.016 151.803 79.9414C151.443 80.0941 151.138 80.225 150.828 80.3287C150.931 81.6597 151.035 82.9416 151.133 84.2289L147.008 84.638C146.959 84.1253 146.904 83.5852 146.855 83.0507C146.806 82.5379 146.779 82.0251 146.779 81.5124C146.316 81.616 145.907 81.6924 145.526 81.7415L144.529 77.9231C145.193 77.8194 145.836 77.6667 146.452 77.4594C146.403 77.0994 146.376 76.7175 146.349 76.303C146.3 75.9157 146.272 75.5338 146.272 75.1247C145.608 75.2774 144.937 75.4083 144.327 75.512L143.918 71.6117C144.223 71.5627 144.556 71.4808 144.916 71.4045C145.248 71.3554 145.608 71.2735 145.967 71.1972C145.864 70.1444 145.787 69.1189 145.738 68.0933L149.836 67.706C149.863 68.2188 149.885 68.7316 149.939 69.2443C149.967 69.7571 150.016 70.2698 150.065 70.7553C150.37 70.7553 150.681 70.7553 150.986 70.7281C151.291 70.7281 151.601 70.7281 151.934 70.7008L151.928 70.7062ZM151.749 77.0666C151.776 76.2484 151.852 75.4247 152.005 74.6065C151.699 74.6338 151.416 74.6338 151.16 74.6338C150.877 74.661 150.621 74.661 150.364 74.661C150.364 74.9665 150.392 75.2229 150.414 75.4793C150.414 75.7629 150.441 76.0193 150.49 76.2484C150.642 76.1993 150.795 76.1448 150.953 76.0957C151.106 76.0466 151.258 75.992 151.416 75.9157L151.749 77.0721V77.0666ZM161.175 71.2954C161.044 72.2445 160.946 73.1664 160.892 74.0392C161.404 74.1428 161.916 74.2465 162.429 74.2955L162.123 78.2176C161.84 78.2176 161.584 78.1903 161.328 78.1412C161.072 78.114 160.843 78.0922 160.636 78.0376C160.587 78.5504 160.56 79.0359 160.56 79.4995C160.532 79.985 160.532 80.4487 160.532 80.9123L156.718 80.525C156.718 79.5486 156.745 78.5504 156.794 77.5521C156.386 77.503 155.977 77.4485 155.617 77.3994V77.8085C155.59 78.9104 155.645 79.8104 155.77 80.525C155.873 81.2451 156.075 81.7797 156.331 82.1397C156.587 82.6034 156.947 82.9088 157.405 83.1161C157.868 83.3452 158.429 83.4489 159.121 83.4216C159.862 83.4489 160.505 83.3452 161.017 83.0888C161.529 82.8816 161.965 82.527 162.27 82.0633C162.832 81.1414 163.115 79.7013 163.115 77.8085C163.115 74.1155 162.81 72.1409 162.194 71.8845C162.014 71.759 161.835 71.6281 161.682 71.5245C161.502 71.4481 161.322 71.3717 161.17 71.2954H161.175ZM157.05 73.5264C157.078 72.9646 157.127 72.37 157.23 71.759C156.974 71.9118 156.745 72.0154 156.538 72.1191C156.435 72.3754 156.358 72.5827 156.309 72.7845C156.26 73.0136 156.206 73.2209 156.179 73.4282C156.462 73.4773 156.74 73.5319 157.05 73.5319V73.5264Z" fill="white"/>
<path d="M177.391 80.296C177.495 80.1651 177.62 80.0123 177.778 79.8596C177.909 79.7069 178.062 79.5541 178.214 79.3959L175.757 79.1123V77.4213C175.757 76.8812 175.784 76.3466 175.833 75.7793C175.55 75.7793 175.294 75.7793 175.092 75.7302C174.836 76.3466 174.607 76.963 174.4 77.5522C174.193 78.1686 173.991 78.7577 173.839 79.3196L170.738 78.3213C170.891 77.8086 171.071 77.3231 171.25 76.8321C171.403 76.3685 171.583 75.9321 171.763 75.4957C171.25 75.4957 170.787 75.4466 170.351 75.392L170.836 72.1846C171.708 72.2337 172.553 72.2882 173.425 72.3373C174.296 72.4137 175.141 72.49 175.986 72.5446C175.986 72.2118 175.986 71.8791 176.035 71.5191C175.522 71.6718 175.059 71.7264 174.651 71.6991H174.138C173.653 71.7264 173.217 71.6718 172.809 71.5463C172.4 71.4427 172.041 71.29 171.735 71.0336C170.967 70.5208 170.607 69.7244 170.635 68.6989C170.607 68.2625 170.635 67.777 170.738 67.237C170.814 66.7242 170.945 66.1842 171.147 65.5951L174.449 66.2878C174.242 66.6478 174.117 66.9806 174.04 67.2642C173.937 67.5697 173.915 67.8534 173.937 68.0825C173.909 68.3389 173.937 68.5189 174.04 68.6225C174.089 68.7753 174.193 68.8298 174.345 68.8025C174.629 68.8298 174.934 68.8025 175.266 68.6989C175.571 68.6498 175.931 68.5189 176.291 68.3661C176.318 67.8534 176.367 67.3133 176.421 66.7733C176.471 66.2606 176.547 65.7205 176.65 65.1859L180.132 65.5951C180.083 65.9005 180.029 66.1842 180.001 66.4406C179.974 66.7242 179.952 67.0024 179.952 67.2588C180.873 66.7733 181.772 66.3096 182.693 65.8733C183.614 65.4641 184.513 65.055 185.434 64.6677L186.099 65.7423C186.916 65.6387 187.766 65.5896 188.611 65.5896C189.586 65.6169 190.404 65.846 191.068 66.2551C191.788 66.7679 192.142 67.4879 192.142 68.4589C192.093 69.3317 191.602 70.0735 190.681 70.6899C189.886 71.2518 188.992 71.7645 188.017 72.2827L190.246 72.1027C190.246 72.49 190.273 72.8446 190.322 73.2046C190.371 73.5646 190.425 73.9247 190.474 74.2792C190.78 74.3283 191.09 74.3556 191.395 74.3556C191.7 74.3829 192.011 74.3829 192.343 74.3829L192.038 77.4103C191.553 77.4103 191.117 77.3831 190.758 77.334C190.758 77.694 190.785 78.0268 190.834 78.3322C190.861 78.6922 190.883 78.9977 190.938 79.3086L190.551 79.3359C190.856 79.5923 191.166 79.8214 191.472 80.0778C191.777 80.3614 192.06 80.6451 192.343 80.896L191.27 81.9979L191.041 84.6108C190.273 84.5835 189.504 84.5344 188.785 84.4853C188.044 84.4362 187.325 84.3817 186.633 84.3326C187.864 84.6381 189.014 84.9217 190.038 85.2054L189.139 88.2056C186.578 87.5892 184.377 87.1037 182.53 86.7164L183.298 84.1253C181.892 84.0762 180.53 83.9944 179.249 83.8962C178.688 84.6163 178.149 85.3308 177.637 86.0509C177.124 86.7709 176.661 87.4855 176.231 88.2056L172.923 85.9254C173.49 85.1563 174.051 84.3871 174.612 83.6453C173.179 83.5962 171.823 83.5144 170.515 83.4162L171.027 80.0069C172.079 80.056 173.13 80.1105 174.204 80.1596C175.255 80.2087 176.307 80.2633 177.38 80.2905L177.391 80.296ZM188.687 79.5268L187.559 79.6305C187.456 78.785 187.352 77.9613 187.303 77.1431C186.84 77.1431 186.382 77.1158 185.919 77.0667C186.175 77.5304 186.48 77.9395 186.84 78.3213L184.148 79.6305C183.429 78.8123 182.84 77.9122 182.432 76.8867C181.969 76.8867 181.511 76.8594 181.048 76.8103L181.277 75.452C180.971 75.6048 180.688 75.7084 180.432 75.8121L179.457 73.581C179.331 75.1684 179.249 76.7612 179.249 78.2995L180.121 77.4267L183.146 79.325C182.737 79.7614 182.35 80.1705 182.045 80.5305C184.148 80.6833 186.219 80.8142 188.268 80.9178C188.06 80.8142 187.881 80.6887 187.728 80.5305L188.676 79.5323L188.687 79.5268ZM179.516 72.681C179.98 72.5282 180.465 72.3755 180.95 72.1682C180.644 71.7591 180.41 71.3227 180.23 70.8099L182.742 69.8117C182.819 70.0681 182.922 70.3244 183.047 70.5317C183.178 70.7881 183.331 70.9954 183.483 71.1972C183.739 71.0936 184.023 70.9899 184.301 70.8918C184.094 70.6845 183.941 70.4281 183.788 70.1717C183.636 69.9426 183.532 69.6862 183.429 69.4026L186.039 68.4043C186.246 68.9171 186.502 69.3807 186.856 69.7899C187.161 69.6862 187.445 69.5335 187.755 69.3807C188.371 69.0753 188.703 68.8407 188.731 68.688C188.703 68.5352 188.627 68.4316 188.524 68.328C188.393 68.2789 188.219 68.2243 188.011 68.2243C186.627 68.2734 185.298 68.4534 183.963 68.7643C182.987 69.2498 182.018 69.7408 181.042 70.199L179.838 68.377C179.685 69.8117 179.555 71.2518 179.506 72.6864L179.516 72.681ZM186.998 74.1156C186.949 73.7065 186.894 73.2974 186.894 72.8828C186.126 73.2919 185.358 73.6519 184.589 74.0119C184.998 74.061 185.385 74.0883 185.794 74.0883C186.202 74.1156 186.589 74.1156 186.998 74.1156Z" fill="white"/>
<path d="M59.0397 53.4198C57.6556 53.4198 56.1027 53.3652 54.3862 53.1688C52.6426 53.0052 50.7027 52.7543 48.5994 52.3943L48.9591 48.014C50.621 48.2376 51.9233 48.4013 52.8878 48.5104C53.8304 48.6195 54.468 48.6795 54.7404 48.6467C54.6314 46.4866 54.577 44.4628 54.577 42.5755C54.577 40.6881 54.6042 39.0298 54.7132 37.4751C53.9939 37.4751 52.3592 37.5842 49.7873 37.8079L49.4277 33.264C50.9806 33.1549 52.3647 33.0676 53.5798 33.013C54.7949 32.9585 55.8248 32.9312 56.653 32.9039C57.7592 32.9312 59.0615 32.9858 60.5599 33.0676C62.0529 33.1767 63.7694 33.3458 65.7092 33.5094L65.3496 37.9442C65.2406 37.9715 64.9627 37.9715 64.5486 37.917C64.1072 37.8897 63.5242 37.8352 62.7777 37.7206C61.9767 37.6661 61.2846 37.6388 60.7288 37.5842C60.1458 37.5842 59.6772 37.557 59.3176 37.5297C59.0942 41.6863 59.1214 45.4284 59.3448 48.7558C61.0067 48.7831 63.219 48.6467 65.9926 48.314L66.4339 52.667C63.9437 53.1688 61.4808 53.4143 59.0397 53.4143V53.4198Z" fill="white"/>
<path d="M86.9221 49.3722C86.0938 51.5324 84.8732 52.5852 83.3203 52.5579C82.3776 52.5852 81.4949 52.3342 80.6339 51.8106C79.7458 51.3142 78.9175 50.5614 78.0893 49.5086C77.2883 48.5649 76.5418 47.5939 75.8171 46.5684C75.0978 45.5702 74.433 44.5174 73.8227 43.41C73.2669 42.5209 72.8801 41.8554 72.6621 41.4135C72.4114 40.9717 72.3025 40.748 72.3569 40.748C72.248 40.7753 72.1608 41.0535 72.1063 41.5772C72.0518 42.1336 72.0518 42.9627 72.0791 44.0155C72.0791 47.2885 72.4114 50.005 73.0762 52.1651L68.4827 53.4143C68.1503 52.8852 67.8452 51.5596 67.6218 49.394C67.3439 47.3976 67.2349 45.5974 67.2622 43.9882C67.2349 42.7664 67.2894 41.6045 67.3984 40.4971C67.5074 39.4443 67.7035 38.4461 67.9814 37.5024C68.3411 36.0623 68.8424 34.9822 69.5017 34.2567C70.1392 33.5367 70.913 33.1767 71.8556 33.1494C72.2698 33.1767 72.6566 33.2585 73.049 33.4003C73.4086 33.5694 73.741 33.8149 74.0734 34.0931C74.2968 34.3713 74.6292 34.8949 75.0705 35.6477C75.5119 36.4223 76.0405 37.4206 76.6507 38.6425C77.2883 40.028 77.9258 41.2499 78.5361 42.3027C79.1464 43.3555 79.724 44.2446 80.2798 44.9647C81.5003 46.6284 82.2468 47.4303 82.5792 47.403C82.6337 47.403 82.7154 47.2666 82.8299 46.9884C82.8844 46.7648 82.9389 46.5193 82.9661 46.2957C82.9661 43.7755 82.7699 41.6972 82.3831 40.0335C81.9417 38.4243 81.2224 36.6787 80.1708 34.7368L84.737 32.8494C85.0967 33.5149 85.4563 34.2349 85.7887 35.064C86.1211 35.8932 86.4535 36.8096 86.7858 37.8079C87.1182 38.9698 87.3689 40.1098 87.5323 41.1626C87.6958 42.2427 87.783 43.2682 87.8102 44.2119C87.783 46.1538 87.4779 47.8721 86.9221 49.3668V49.3722Z" fill="white"/>
<path d="M99.0787 53.4198C97.6947 53.4198 96.1417 53.3652 94.4253 53.1688C92.6816 53.0052 90.7418 52.7543 88.6385 52.3943L88.9981 48.014C90.6601 48.2376 91.9624 48.4013 92.9268 48.5104C93.8695 48.6195 94.507 48.6795 94.7795 48.6467C94.6705 46.4866 94.616 44.4628 94.616 42.5755C94.616 40.6881 94.6433 39.0298 94.7522 37.4751C94.033 37.4751 92.3983 37.5842 89.8264 37.8079L89.4667 33.264C91.0197 33.1549 92.4037 33.0676 93.6189 33.013C94.834 32.9585 95.8638 32.9312 96.6921 32.9039C97.7982 32.9312 99.1005 32.9858 100.599 33.0676C102.092 33.1767 103.808 33.3458 105.748 33.5094L105.389 37.9442C105.28 37.9715 105.002 37.9715 104.588 37.917C104.146 37.8897 103.563 37.8352 102.817 37.7206C102.016 37.6661 101.324 37.6388 100.768 37.5842C100.185 37.5842 99.7163 37.557 99.3566 37.5297C99.1332 41.6863 99.1605 45.4284 99.3839 48.7558C101.046 48.7831 103.258 48.6467 106.032 48.314L106.473 52.667C103.983 53.1688 101.52 53.4143 99.0787 53.4143V53.4198Z" fill="white"/>
<path d="M126.961 49.3722C126.133 51.5324 124.912 52.5852 123.359 52.5579C122.417 52.5852 121.534 52.3342 120.673 51.8106C119.785 51.3142 118.957 50.5614 118.128 49.5086C117.327 48.5649 116.581 47.5939 115.856 46.5684C115.137 45.5702 114.472 44.5174 113.862 43.41C113.306 42.5209 112.919 41.8554 112.701 41.4135C112.451 40.9717 112.342 40.748 112.396 40.748C112.287 40.7753 112.2 41.0535 112.145 41.5772C112.091 42.1336 112.091 42.9627 112.118 44.0155C112.118 47.2885 112.451 50.005 113.115 52.1651L108.522 53.4143C108.189 52.8852 107.884 51.5596 107.661 49.394C107.383 47.3976 107.274 45.5974 107.301 43.9882C107.274 42.7664 107.328 41.6045 107.437 40.4971C107.546 39.4443 107.743 38.4461 108.02 37.5024C108.38 36.0623 108.881 34.9822 109.541 34.2567C110.178 33.5367 110.952 33.1767 111.895 33.1494C112.309 33.1767 112.696 33.2585 113.088 33.4003C113.448 33.5694 113.78 33.8149 114.112 34.0931C114.336 34.3713 114.668 34.8949 115.11 35.6477C115.551 36.4223 116.08 37.4206 116.69 38.6425C117.327 40.028 117.965 41.2499 118.575 42.3027C119.185 43.3555 119.763 44.2446 120.319 44.9647C121.539 46.6284 122.286 47.4303 122.618 47.403C122.673 47.403 122.755 47.2666 122.869 46.9884C122.923 46.7648 122.978 46.5193 123.005 46.2957C123.005 43.7755 122.809 41.6972 122.422 40.0335C121.981 38.4243 121.261 36.6787 120.21 34.7368L124.776 32.8494C125.136 33.5149 125.495 34.2349 125.828 35.064C126.16 35.8932 126.493 36.8096 126.825 37.8079C127.157 38.9698 127.408 40.1098 127.571 41.1626C127.735 42.2427 127.822 43.2682 127.849 44.2119C127.822 46.1538 127.517 47.8721 126.961 49.3668V49.3722Z" fill="white"/>
<path d="M148.561 38.4787C146.403 38.146 144.687 37.8951 143.384 37.7314C142.055 37.5678 141.167 37.4805 140.671 37.4532C140.447 39.6134 140.366 41.2771 140.393 42.4444C140.366 44.2446 140.475 45.9901 140.698 47.6539C140.921 49.3449 141.281 50.9814 141.777 52.5578L137.211 53.4197C136.213 51.2596 135.745 47.5448 135.772 42.2753C135.745 41.6644 135.745 40.9716 135.799 40.1425C135.827 39.3679 135.881 38.4515 135.996 37.4532C134.998 37.4805 133.865 37.535 132.617 37.6496C131.342 37.7587 129.985 37.9278 128.492 38.1515L127.991 33.6893C129.876 33.4657 131.702 33.2748 133.473 33.133C135.244 33.0239 136.96 32.9366 138.649 32.9093C142.551 32.9093 146.125 33.2966 149.389 34.0712L148.561 38.4787Z" fill="white"/>
<path d="M168.995 47.0703C168.526 48.3468 167.834 49.4541 166.946 50.4251C165.06 52.4216 162.652 53.4198 159.666 53.4198C158.113 53.4198 156.702 53.2234 155.459 52.727C154.184 52.2579 153.078 51.5379 152.135 50.5396C151.138 49.5959 150.419 48.4886 149.95 47.2121C149.449 45.963 149.231 44.5501 149.258 43.001C149.231 41.479 149.455 40.0935 149.923 38.8443C150.364 37.6224 151.084 36.5696 152.026 35.6314C152.915 34.7423 153.993 34.0768 155.236 33.6349C156.484 33.1931 157.895 32.9694 159.47 32.9421C161.023 32.9694 162.407 33.1931 163.649 33.6076C164.87 34.0495 165.976 34.715 166.918 35.5496C168.744 37.377 169.687 39.8208 169.714 42.8919C169.687 44.4465 169.436 45.832 168.995 47.0758V47.0703ZM163.649 38.9752C163.153 38.4734 162.57 38.1134 161.905 37.8406C161.241 37.617 160.494 37.4806 159.66 37.4533C157.721 37.4806 156.282 38.0097 155.312 39.008C154.315 40.0608 153.819 41.5554 153.819 43.4428C153.792 44.332 153.928 45.0793 154.26 45.7448C154.566 46.4375 155.034 47.0212 155.699 47.4903C156.805 48.434 158.276 48.8759 160.075 48.8486C160.794 48.8759 161.486 48.7395 162.096 48.4068C162.706 48.1286 163.289 47.6594 163.785 47.0485C164.227 46.4921 164.559 45.8866 164.782 45.2211C165.006 44.5556 165.115 43.8356 165.142 43.061C165.142 41.3972 164.641 40.039 163.649 38.9862V38.9752Z" fill="white"/>
<path d="M191.314 48.6249C191.09 49.5414 190.758 50.316 190.316 50.9815C189.21 52.6452 187.603 53.4198 185.499 53.4198C184.53 53.4198 183.674 53.2834 182.895 52.9507C182.121 52.6452 181.456 52.1488 180.901 51.4833C179.015 52.8143 177.549 53.4253 176.498 53.4253C174.117 53.4253 172.318 52.5088 171.098 50.5723C170.046 49.0177 169.545 46.9394 169.578 44.392C169.55 42.1445 169.774 40.0662 170.27 38.157C170.771 36.2696 171.517 34.5841 172.515 33.0294L176.416 34.6386C174.809 37.9934 174.035 41.2881 174.062 44.5065C174.035 45.9193 174.198 46.9721 174.531 47.6649C174.863 48.3849 175.392 48.7177 176.111 48.6904C177.664 48.7177 178.547 47.6922 178.77 45.5866L183.145 45.7229C183.342 46.7757 183.641 47.5776 184.034 48.0795C184.421 48.6359 184.895 48.8813 185.445 48.8813C186.001 48.9086 186.442 48.6304 186.747 48.0795C187.025 47.5231 187.189 46.6939 187.189 45.5866C187.161 43.5355 186.747 41.6209 185.968 39.8753C185.358 38.7134 184.415 37.2951 183.145 35.6914L186.442 33.1712C189.929 36.3842 191.673 40.5135 191.673 45.5593C191.646 46.7212 191.537 47.7467 191.314 48.6359V48.6249Z" fill="white"/>
<path d="M211.469 49.3722C210.641 51.5324 209.42 52.5852 207.868 52.5579C206.925 52.5852 206.042 52.3342 205.181 51.8106C204.293 51.3142 203.465 50.5614 202.636 49.5086C201.835 48.5649 201.089 47.5939 200.364 46.5684C199.645 45.5702 198.98 44.5174 198.37 43.41C197.814 42.5209 197.427 41.8554 197.209 41.4135C196.959 40.9717 196.85 40.748 196.904 40.748C196.795 40.7753 196.708 41.0535 196.654 41.5772C196.599 42.1336 196.599 42.9627 196.626 44.0155C196.626 47.2885 196.959 50.005 197.623 52.1651L193.03 53.4143C192.698 52.8852 192.392 51.5596 192.169 49.394C191.891 47.3976 191.782 45.5974 191.809 43.9882C191.782 42.7664 191.837 41.6045 191.946 40.4971C192.055 39.4443 192.251 38.4461 192.529 37.5024C192.888 36.0623 193.39 34.9822 194.049 34.2567C194.686 33.5367 195.46 33.1767 196.403 33.1494C196.817 33.1767 197.204 33.2585 197.596 33.4003C197.956 33.5694 198.288 33.8149 198.621 34.0931C198.844 34.3713 199.176 34.8949 199.618 35.6477C200.059 36.4223 200.588 37.4206 201.198 38.6425C201.835 40.028 202.473 41.2499 203.083 42.3027C203.694 43.3555 204.271 44.2446 204.827 44.9647C206.048 46.6284 206.794 47.4303 207.126 47.403C207.181 47.403 207.263 47.2666 207.377 46.9884C207.432 46.7648 207.486 46.5193 207.513 46.2957C207.513 43.7755 207.317 41.6972 206.93 40.0335C206.489 38.4243 205.77 36.6787 204.718 34.7368L209.284 32.8494C209.644 33.5149 210.003 34.2349 210.336 35.064C210.668 35.8932 211.001 36.8096 211.333 37.8079C211.665 38.9698 211.916 40.1098 212.08 41.1626C212.243 42.2427 212.33 43.2682 212.357 44.2119C212.33 46.1538 212.025 47.8721 211.469 49.3668V49.3722Z" fill="white"/>
<path d="M203.563 92.7659L204.783 95.3947C208.676 103.767 218.617 107.397 226.986 103.504C235.358 99.6106 238.988 89.6698 235.095 81.301L233.875 78.6722L233.645 78.7797C229.092 72.239 220.367 69.7139 212.896 73.1882C205.421 76.6625 201.732 84.9607 203.797 92.6583L203.567 92.7659H203.563ZM212.97 86.1139L214.579 81.7126C215.132 80.1961 216.812 79.4175 218.328 79.9699L222.733 81.5791C224.25 82.1316 225.028 83.8113 224.476 85.3278L222.867 89.7291C222.314 91.2456 220.634 92.0243 219.118 91.4718L214.713 89.8626C213.196 89.3101 212.418 87.6304 212.97 86.1139Z" fill="#664620"/>
<path d="M203.563 92.7659C207.456 101.138 217.397 104.768 225.766 100.875C234.138 96.9818 237.768 87.0409 233.875 78.6722C229.982 70.2998 220.041 66.6698 211.672 70.5631C203.3 74.4564 199.67 84.3972 203.563 92.7659ZM212.97 86.114L214.579 81.7127C215.132 80.1962 216.811 79.4175 218.328 79.97L222.733 81.5792C224.249 82.1317 225.028 83.8113 224.476 85.3279L222.866 89.7292C222.314 91.2457 220.634 92.0243 219.118 91.4718L214.713 89.8626C213.196 89.3102 212.418 87.6305 212.97 86.114Z" fill="#FFBF15"/>
<g style="mix-blend-mode:screen">
<path d="M224.471 85.3241C224.494 85.2611 224.512 85.198 224.531 85.135L234.983 89.5622C234.787 90.3965 234.523 91.2159 234.201 92.0094L223.463 88.0754L224.468 85.3241H224.471Z" fill="#5C3A00"/>
<path d="M214.579 81.7128L213.578 84.4567L202.84 80.5226C203.277 79.1841 203.882 77.9048 204.642 76.7146L214.913 81.0639C214.779 81.2605 214.661 81.4755 214.575 81.7128H214.579Z" fill="#5C3A00"/>
<path d="M221.947 91.0006C222.347 90.678 222.674 90.2479 222.863 89.7288L223.152 88.9353L233.905 92.6988C233.634 93.2884 233.334 93.8631 232.996 94.4156L221.951 91.0006H221.947Z" fill="#5C3A00"/>
<path d="M202.499 81.7051L213.211 85.4537L212.97 86.1138C212.707 86.8331 212.748 87.5858 213.022 88.2384L202.028 84.8419C202.084 83.7815 202.243 82.7285 202.499 81.7051Z" fill="#5C3A00"/>
</g>
<g style="mix-blend-mode:screen">
<path d="M205.48 91.8758C202.087 84.575 205.265 75.8763 212.562 72.4798C219.863 69.0871 228.562 72.2648 231.958 79.5619C235.351 86.8627 232.173 95.5614 224.876 98.9579C217.575 102.351 208.877 99.1729 205.48 91.8758ZM206.177 91.5495C209.392 98.4647 217.635 101.476 224.55 98.2608C231.465 95.046 234.476 86.8034 231.261 79.8882C228.046 72.973 219.804 69.9622 212.888 73.1769C205.973 76.3917 202.962 84.6343 206.177 91.5495Z" fill="#FFBF15"/>
</g>
<path d="M223.845 83.9817L219.44 82.3724C217.923 81.82 216.247 82.5986 215.691 84.1151L214.082 88.5164C213.974 88.813 213.919 89.1171 213.908 89.4137C212.936 88.6536 212.521 87.3299 212.966 86.11L214.575 81.7087C215.128 80.1922 216.807 79.4135 218.324 79.966L222.729 81.5752C223.949 82.0202 224.69 83.1956 224.646 84.4229C224.408 84.2375 224.141 84.0855 223.845 83.978V83.9817Z" fill="#664620"/>
</svg>
