<svg width="344" height="344" viewBox="0 0 344 344" fill="none" xmlns="http://www.w3.org/2000/svg">
<path d="M172.595 16.5305C83.1602 16.5305 10.6781 89.0126 10.6781 178.447C10.6781 267.881 83.1777 340.363 172.595 340.363C262.011 340.363 334.511 267.864 334.511 178.447C334.511 89.0302 262.011 16.5305 172.595 16.5305ZM172.366 320.021C94.3505 320.021 31.1087 256.779 31.1087 178.763C31.1087 100.747 94.3329 37.4881 172.349 37.4881C250.364 37.4881 313.606 100.73 313.606 178.746C313.606 256.761 250.364 320.003 172.349 320.003L172.366 320.021Z" fill="#29240F" fill-opacity="0.2"/>
<path d="M190.773 196.083C201.359 185.497 201.359 168.335 190.773 157.749C180.188 147.163 163.025 147.163 152.439 157.749C141.854 168.335 141.854 185.497 152.439 196.083C163.025 206.669 180.188 206.669 190.773 196.083Z" fill="#29240F" fill-opacity="0.2"/>
<path d="M194.336 183.904C199.317 171.195 193.052 156.854 180.342 151.873C167.632 146.892 153.291 153.157 148.311 165.867C143.33 178.577 149.595 192.918 162.305 197.899C175.014 202.88 189.356 196.614 194.336 183.904Z" fill="#F5E42D"/>
<path d="M172.05 3.89966C78.1362 3.89966 2.00015 80.0357 2.00015 173.95C2.00015 267.864 78.1362 344 172.05 344C265.964 344 342.1 267.864 342.1 173.95C342.1 80.0357 265.964 3.89966 172.05 3.89966ZM171.804 322.621C89.8711 322.621 23.4497 256.199 23.4497 174.266C23.4497 92.3327 89.8711 25.9113 171.804 25.9113C253.738 25.9113 320.159 92.3327 320.159 174.266C320.159 256.199 253.738 322.621 171.804 322.621Z" fill="#F5AD1C"/>
<path d="M150.565 5.25233C157.768 21.3965 164.988 37.5408 172.191 53.685C179.393 37.5583 186.596 21.4317 193.798 5.28746C186.666 4.37397 179.411 3.89966 172.05 3.89966C164.689 3.89966 157.592 4.3564 150.565 5.25233Z" fill="#29240F" fill-opacity="0.2"/>
<path d="M172.191 39.6139C166.288 26.4034 160.403 13.2105 154.501 0H189.881C183.978 13.2105 178.093 26.4034 172.191 39.6139Z" fill="#F5E42D"/>
<path d="M171.277 33.6589C167.061 23.2767 162.845 12.8769 158.629 2.49473C161.211 2.28393 163.794 2.07312 166.393 1.87988C168.027 12.4729 169.661 23.0659 171.295 33.6589H171.277Z" fill="#FAF2B6"/>
<path d="M153.463 161.056C149.634 166.22 149.405 172.193 149.388 173.722C149.283 181.1 152.831 186.229 154.026 187.846C153.147 185.931 150.249 179.009 152.638 170.647C153.2 168.662 154.904 163.691 159.559 159.457C167.394 152.325 177.249 153.063 179.059 153.221C168.8 150.955 158.699 153.994 153.463 161.056Z" fill="#FAF2B6"/>
<path d="M182.942 152.975C183.803 153.608 193.746 161.161 193.236 173.985C193.201 174.987 192.586 186.072 183.662 192.413C174.703 198.773 161.089 197.684 151.093 189.005C152.674 191.149 156.837 196.225 164.075 198.439C166.359 199.142 168.801 199.51 171.313 199.51C184.962 199.51 196.03 188.443 196.03 174.794C196.03 165.342 190.724 157.139 182.942 152.975Z" fill="#F5AD1C"/>
<path d="M319.438 229.515C319.438 229.515 319.385 229.603 319.368 229.655C319.42 229.603 319.245 230.095 319.157 230.411C319.245 230.253 319.192 231.623 319.139 230.92C319.139 231.043 319.139 231.289 319.157 231.395C319.157 231.342 319.157 231.272 319.157 231.149C319.157 231.149 319.175 231.254 319.21 231.359C319.28 231.43 319.403 231.553 319.456 231.605C319.456 231.605 319.456 231.605 319.473 231.605C319.631 230.973 319.772 230.341 319.912 229.708C319.754 229.655 319.596 229.585 319.438 229.515Z" fill="#F6E36F"/>
<path d="M283.461 64.2785C285.916 64.2785 287.906 62.2886 287.906 59.834C287.906 57.3794 285.916 55.3895 283.461 55.3895C281.006 55.3895 279.017 57.3794 279.017 59.834C279.017 62.2886 281.006 64.2785 283.461 64.2785Z" fill="#F5E42D"/>
<path d="M236.614 26.8724C237.15 24.4769 235.642 22.1008 233.246 21.5654C230.851 21.0299 228.475 22.5378 227.939 24.9333C227.404 27.3288 228.912 29.7048 231.307 30.2403C233.703 30.7757 236.079 29.2679 236.614 26.8724Z" fill="#F5E42D"/>
<path d="M320.072 112.122C321.808 110.387 321.808 107.572 320.072 105.837C318.337 104.101 315.522 104.101 313.787 105.837C312.051 107.572 312.051 110.387 313.787 112.122C315.522 113.858 318.337 113.858 320.072 112.122Z" fill="#F5E42D"/>
<path d="M334.774 170.971C335.166 168.548 333.519 166.266 331.096 165.874C328.673 165.482 326.391 167.129 325.999 169.552C325.607 171.975 327.253 174.257 329.676 174.649C332.099 175.041 334.382 173.395 334.774 170.971Z" fill="#F5E42D"/>
<path d="M323.312 233.023C325.048 231.287 325.048 228.473 323.312 226.737C321.576 225.002 318.762 225.002 317.027 226.737C315.291 228.473 315.291 231.287 317.027 233.023C318.762 234.759 321.576 234.759 323.312 233.023Z" fill="#F5E42D"/>
<path d="M290.929 286.673C292.664 284.937 292.664 282.123 290.929 280.388C289.193 278.652 286.379 278.652 284.643 280.388C282.908 282.123 282.908 284.937 284.643 286.673C286.379 288.409 289.193 288.409 290.929 286.673Z" fill="#F5E42D"/>
<path d="M234.865 324.69C237.202 323.939 238.488 321.436 237.736 319.099C236.985 316.762 234.482 315.477 232.145 316.228C229.808 316.979 228.523 319.482 229.274 321.819C230.025 324.156 232.528 325.442 234.865 324.69Z" fill="#F5E42D"/>
<path d="M174.479 336.581C176.215 334.845 176.215 332.031 174.479 330.296C172.744 328.56 169.93 328.56 168.194 330.296C166.458 332.031 166.458 334.845 168.194 336.581C169.93 338.317 172.744 338.317 174.479 336.581Z" fill="#F5E42D"/>
<path d="M116.137 321.49C116.703 319.102 115.226 316.707 112.837 316.141C110.449 315.575 108.054 317.052 107.488 319.441C106.922 321.829 108.399 324.224 110.788 324.79C113.176 325.356 115.571 323.879 116.137 321.49Z" fill="#F5E42D"/>
<path d="M60.8327 292.423C63.2874 292.423 65.2772 290.433 65.2772 287.978C65.2772 285.524 63.2874 283.534 60.8327 283.534C58.3781 283.534 56.3882 285.524 56.3882 287.978C56.3882 290.433 58.3781 292.423 60.8327 292.423Z" fill="#F5E42D"/>
<path d="M24.7497 239.511C27.2043 239.511 29.1942 237.521 29.1942 235.066C29.1942 232.611 27.2043 230.622 24.7497 230.622C22.295 230.622 20.3052 232.611 20.3052 235.066C20.3052 237.521 22.295 239.511 24.7497 239.511Z" fill="#F5E42D"/>
<path d="M15.4822 175.505C17.2179 173.77 17.2179 170.956 15.4822 169.22C13.7466 167.484 10.9325 167.484 9.19678 169.22C7.46109 170.956 7.4611 173.77 9.19678 175.505C10.9325 177.241 13.7466 177.241 15.4822 175.505Z" fill="#F5E42D"/>
<path d="M28.4724 113.711C28.8644 111.288 27.2179 109.006 24.7947 108.614C22.3716 108.222 20.0895 109.869 19.6975 112.292C19.3054 114.715 20.952 116.997 23.3751 117.389C25.7982 117.781 28.0803 116.135 28.4724 113.711Z" fill="#F5E42D"/>
<path d="M64.1768 60.675C64.5689 58.2519 62.9223 55.9698 60.4992 55.5778C58.0761 55.1857 55.794 56.8323 55.402 59.2554C55.0099 61.6785 56.6565 63.9606 59.0796 64.3526C61.5027 64.7447 63.7848 63.0981 64.1768 60.675Z" fill="#F5E42D"/>
<path d="M115.293 29.0492C117.029 27.3135 117.029 24.4994 115.293 22.7638C113.558 21.0281 110.744 21.0281 109.008 22.7638C107.272 24.4994 107.272 27.3135 109.008 29.0492C110.744 30.7849 113.558 30.7849 115.293 29.0492Z" fill="#F5E42D"/>
</svg>
